<svg width="61" height="51" viewBox="0 0 61 51" fill="none" xmlns="http://www.w3.org/2000/svg">
<path d="M17.5317 27.6007V26.083C28.4858 26.083 28.4858 26.083 28.4858 2.74562H30.4627C30.4503 27.6256 30.4503 27.6007 17.5317 27.6007ZM9.33788 19.0047C8.61672 19.0047 8.01991 18.42 8.01991 17.6985C8.01991 16.977 8.60429 16.3923 9.33788 16.3923C10.059 16.3923 10.6558 16.977 10.6558 17.6985C10.6558 18.4324 10.0715 19.0047 9.33788 19.0047ZM28.6971 0.120783C21.697 0.182983 3.40701 -0.750016 1.76576 10.2842C1.10677 14.688 -0.85775 36.3211 4.50117 42.367C5.38396 43.3622 9.30058 43.5736 9.86009 42.367C10.2455 41.5335 7.70906 32.4647 9.86009 30.3375C10.6558 29.5538 13.6524 29.4667 14.3487 30.3375C14.3487 34.6542 13.3415 47.6042 14.3487 48.5994C15.6169 49.8558 20.7023 50.1793 21.5353 48.5994C22.1073 47.5047 21.5353 37.5029 21.5353 34.6417C25.4146 37.8637 46.3778 41.745 51.2021 36.1221C51.2021 38.8713 50.0582 47.8406 51.2021 48.9726C52.4704 50.229 58.3888 50.7515 58.3888 48.9726C58.3888 47.7286 60.1419 19.2286 60.1419 19.2286C60.1419 19.2286 59.7689 -0.140457 28.6971 0.120783Z" fill="white"/>
</svg>
