<!-- Generator: Adobe Illustrator 23.0.2, SVG Export Plug-In  -->
<svg version="1.1" xmlns="http://www.w3.org/2000/svg" xmlns:xlink="http://www.w3.org/1999/xlink" x="0px" y="0px"
	 width="386.89px" height="194.54px" viewBox="0 0 386.89 194.54" style="enable-background:new 0 0 386.89 194.54;"
	 xml:space="preserve">
<style type="text/css">
	.st0{fill:#58595B;}
	.st1{fill:#F3702B;}
</style>
<defs>
</defs>
<g>
	<g>
		<path class="st0" d="M271.65,57.62c1.83,0,3.31-1.48,3.31-3.31c0-1.83-1.48-3.27-3.31-3.27c-1.79,0-3.27,1.44-3.27,3.27
			C268.38,56.14,269.86,57.62,271.65,57.62"/>
		<path class="st0" d="M381.88,181.18c1.92,0,3.53-1.61,3.53-3.49c0-1.92-1.61-3.53-3.53-3.53c-1.92,0-3.49,1.61-3.49,3.53
			C378.39,179.57,379.96,181.18,381.88,181.18"/>
		<polygon class="st0" points="384.32,171.24 385.19,151.66 378.52,151.66 379.43,171.24 		"/>
		<path class="st0" d="M369.76,180.75v-13.91c0.92-1.35,3.36-2.4,5.19-2.4c0.65,0,1.13,0.04,1.53,0.13v-5.41
			c-2.62,0-5.19,1.53-6.71,3.36v-2.83h-5.54v21.06H369.76z"/>
		<path class="st0" d="M361.08,170.72c0-6.85-4.23-11.55-10.55-11.55c-6.37,0-10.9,4.93-10.9,11.03c0,6.76,4.84,11.08,11.25,11.08
			c3.27,0,6.58-1,8.68-2.92l-2.48-3.66c-1.35,1.31-3.79,2.05-5.58,2.05c-3.57,0-5.67-2.14-6.06-4.71h15.65V170.72z M345.38,168.19
			c0.22-2.09,1.7-4.49,5.15-4.49c3.66,0,5.06,2.49,5.23,4.49H345.38z"/>
		<polygon class="st0" points="331.78,180.75 340.24,159.69 334.31,159.69 328.77,174.34 323.28,159.69 317.35,159.69 
			325.81,180.75 		"/>
		<path class="st0" d="M317.22,170.72c0-6.85-4.23-11.55-10.55-11.55c-6.37,0-10.9,4.93-10.9,11.03c0,6.76,4.84,11.08,11.25,11.08
			c3.27,0,6.58-1,8.68-2.92l-2.49-3.66c-1.35,1.31-3.79,2.05-5.58,2.05c-3.57,0-5.67-2.14-6.06-4.71h15.65V170.72z M301.52,168.19
			c0.22-2.09,1.7-4.49,5.14-4.49c3.66,0,5.06,2.49,5.23,4.49H301.52z"/>
		<path class="st0" d="M288.7,180.75v-13.91c0.92-1.35,3.36-2.4,5.19-2.4c0.65,0,1.13,0.04,1.53,0.13v-5.41
			c-2.62,0-5.19,1.53-6.72,3.36v-2.83h-5.54v21.06H288.7z"/>
		<path class="st0" d="M269.6,159.16c-6.93,0-11.12,5.06-11.12,11.03c0,5.97,4.19,11.08,11.12,11.08c6.98,0,11.16-5.1,11.16-11.08
			C280.76,164.22,276.58,159.16,269.6,159.16z M269.6,176.34c-3.45,0-5.36-2.83-5.36-6.15c0-3.27,1.92-6.1,5.36-6.1
			c3.49,0,5.41,2.83,5.41,6.1C275.01,173.51,273.09,176.34,269.6,176.34z"/>
		<path class="st0" d="M254.12,180.75v-16.22h4.27v-4.84h-4.27v-0.87c0-2.05,1.05-3.05,2.62-3.05c1,0,1.75,0.3,2.31,0.83l2.09-3.36
			c-1.26-1.44-3.44-2-5.49-2c-4.23,0-7.06,2.83-7.06,7.59v0.87h-3.49v4.84l3.49,0l0,16.22H254.12z"/>
		<path class="st0" d="M363.61,137.45c0-6.85-4.23-11.55-10.55-11.55c-6.37,0-10.9,4.93-10.9,11.03c0,6.76,4.84,11.08,11.25,11.08
			c3.27,0,6.58-1,8.68-2.92l-2.48-3.66c-1.35,1.31-3.79,2.05-5.58,2.05c-3.58,0-5.67-2.14-6.06-4.71h15.65V137.45z M347.91,134.92
			c0.22-2.09,1.7-4.49,5.15-4.49c3.66,0,5.06,2.49,5.23,4.49H347.91z"/>
		<path class="st0" d="M340.37,137.45c0-6.85-4.23-11.55-10.55-11.55c-6.37,0-10.9,4.93-10.9,11.03c0,6.76,4.84,11.08,11.25,11.08
			c3.27,0,6.58-1,8.68-2.92l-2.49-3.66c-1.35,1.31-3.79,2.05-5.58,2.05c-3.58,0-5.67-2.14-6.06-4.71h15.65V137.45z M324.67,134.92
			c0.22-2.09,1.7-4.49,5.15-4.49c3.66,0,5.06,2.49,5.23,4.49H324.67z"/>
		<path class="st0" d="M317.13,137.45c0-6.85-4.23-11.55-10.55-11.55c-6.37,0-10.9,4.93-10.9,11.03c0,6.76,4.84,11.08,11.25,11.08
			c3.27,0,6.58-1,8.68-2.92l-2.49-3.66c-1.35,1.31-3.79,2.05-5.58,2.05c-3.57,0-5.67-2.14-6.06-4.71h15.65V137.45z M301.43,134.92
			c0.22-2.09,1.7-4.49,5.15-4.49c3.66,0,5.06,2.49,5.23,4.49L301.43,134.92z"/>
		<path class="st0" d="M293.89,137.45c0-6.85-4.23-11.55-10.55-11.55c-6.37,0-10.9,4.93-10.9,11.03c0,6.76,4.84,11.08,11.25,11.08
			c3.27,0,6.58-1,8.68-2.92l-2.49-3.66c-1.35,1.31-3.79,2.05-5.58,2.05c-3.57,0-5.67-2.14-6.06-4.71h15.65V137.45z M278.19,134.92
			c0.22-2.09,1.7-4.49,5.15-4.49c3.66,0,5.06,2.49,5.23,4.49H278.19z"/>
		<path class="st0" d="M265.37,147.48v-13.91c0.92-1.35,3.36-2.4,5.19-2.4c0.65,0,1.13,0.04,1.53,0.13v-5.41
			c-2.62,0-5.19,1.53-6.72,3.36v-2.83l-5.54,0l0,21.06H265.37z"/>
		<path class="st0" d="M254.12,147.48v-16.22h4.27v-4.84h-4.27v-0.87c0-2.05,1.05-3.05,2.62-3.05c1,0,1.75,0.3,2.31,0.83l2.09-3.36
			c-1.26-1.44-3.44-2-5.49-2c-4.23,0-7.06,2.83-7.06,7.59v0.87h-3.49v4.84h3.49v16.22H254.12z"/>
		<path class="st0" d="M382.27,114.74c2.31,0,3.79-0.61,4.62-1.35l-1.18-4.23c-0.3,0.35-1.09,0.65-1.92,0.65
			c-1.22,0-1.92-1-1.92-2.35v-9.46h4.27v-4.84l-4.27,0V87.4h-5.54v5.76h-3.49v4.84h3.49v10.94
			C376.34,112.73,378.39,114.74,382.27,114.74"/>
		<path class="st0" d="M362.87,114.74c5.84,0,9.16-2.83,9.16-6.72c0-8.5-12.51-5.89-12.51-8.98c0-1.18,1.31-2.05,3.31-2.05
			c2.57,0,4.97,1.13,6.24,2.44l2.22-3.92c-2.09-1.66-4.93-2.88-8.46-2.88c-5.58,0-8.63,3.1-8.63,6.63c0,8.28,12.47,5.45,12.47,8.89
			c0,1.31-1.13,2.22-3.53,2.22c-2.62,0-5.71-1.44-7.28-2.92l-2.4,4.01C355.67,113.52,359.2,114.74,362.87,114.74"/>
		<path class="st0" d="M352.14,104.18c0-6.85-4.23-11.55-10.55-11.55c-6.37,0-10.9,4.93-10.9,11.03c0,6.76,4.84,11.07,11.25,11.07
			c3.27,0,6.58-1,8.68-2.92l-2.49-3.66c-1.35,1.31-3.79,2.05-5.58,2.05c-3.57,0-5.67-2.14-6.06-4.71h15.65V104.18z M336.44,101.66
			c0.22-2.09,1.7-4.49,5.15-4.49c3.66,0,5.06,2.49,5.23,4.49H336.44z"/>
		<path class="st0" d="M323.62,114.21V100.3c0.92-1.35,3.36-2.4,5.19-2.4c0.65,0,1.13,0.04,1.53,0.13v-5.41
			c-2.62,0-5.19,1.53-6.72,3.36v-2.83h-5.54v21.06H323.62z"/>
		<path class="st0" d="M314.95,104.18c0-6.85-4.23-11.55-10.55-11.55c-6.37,0-10.9,4.93-10.9,11.03c0,6.76,4.84,11.07,11.25,11.07
			c3.27,0,6.58-1,8.68-2.92l-2.49-3.66c-1.35,1.31-3.79,2.05-5.58,2.05c-3.58,0-5.67-2.14-6.06-4.71h15.65V104.18z M299.25,101.66
			c0.22-2.09,1.7-4.49,5.15-4.49c3.66,0,5.06,2.49,5.23,4.49H299.25z"/>
		<path class="st0" d="M288.05,114.74c2.31,0,3.79-0.61,4.62-1.35l-1.18-4.23c-0.3,0.35-1.09,0.65-1.92,0.65
			c-1.22,0-1.92-1-1.92-2.35v-9.46h4.27v-4.84h-4.27V87.4h-5.54v5.76h-3.49v4.84h3.49v10.94
			C282.12,112.73,284.17,114.74,288.05,114.74"/>
		<path class="st0" d="M276.4,114.21V99.35c0-4.1-2.22-6.72-6.89-6.72c-3.4,0-6.02,1.66-7.37,3.23v-2.7h-5.54v21.06h5.54V100
			c0.96-1.22,2.62-2.44,4.8-2.44c2.36,0,3.88,1,3.88,3.92v12.73H276.4z"/>
		<rect x="247.32" y="93.15" class="st0" width="5.54" height="21.06"/>
		<path class="st0" d="M250.07,90.89c1.83,0,3.31-1.48,3.31-3.31c0-1.83-1.48-3.27-3.31-3.27c-1.79,0-3.27,1.44-3.27,3.27
			C246.8,89.4,248.28,90.89,250.07,90.89"/>
		<path class="st0" d="M320.66,70.92c0-6.85-4.23-11.55-10.55-11.55c-6.37,0-10.9,4.93-10.9,11.03c0,6.76,4.84,11.08,11.25,11.08
			c3.27,0,6.58-1,8.68-2.92l-2.48-3.66c-1.35,1.31-3.79,2.05-5.58,2.05c-3.58,0-5.67-2.14-6.06-4.71h15.65V70.92z M304.96,68.39
			c0.22-2.09,1.7-4.49,5.15-4.49c3.66,0,5.06,2.49,5.23,4.49H304.96z"/>
		<polygon class="st0" points="290.49,80.95 298.95,59.89 293.02,59.89 287.48,74.54 281.99,59.89 276.06,59.89 284.51,80.95 		"/>
		<rect x="268.91" y="59.89" class="st0" width="5.54" height="21.06"/>
		<polygon class="st0" points="265.72,80.95 265.72,75.5 253.43,75.5 253.43,51.86 247.19,51.86 247.19,80.95 		"/>
		<g>
			<path class="st0" d="M381.88,181.18c1.92,0,3.53-1.61,3.53-3.49c0-1.92-1.61-3.53-3.53-3.53c-1.92,0-3.49,1.61-3.49,3.53
				C378.39,179.57,379.96,181.18,381.88,181.18"/>
			<polygon class="st0" points="384.32,171.24 385.19,151.66 378.52,151.66 379.43,171.24 			"/>
			<path class="st0" d="M369.76,180.75v-13.91c0.92-1.35,3.36-2.4,5.19-2.4c0.65,0,1.13,0.04,1.53,0.13v-5.41
				c-2.62,0-5.19,1.53-6.71,3.36v-2.83h-5.54v21.06H369.76z"/>
			<path class="st0" d="M361.08,170.72c0-6.85-4.23-11.55-10.55-11.55c-6.37,0-10.9,4.93-10.9,11.03c0,6.76,4.84,11.08,11.25,11.08
				c3.27,0,6.58-1,8.68-2.92l-2.48-3.66c-1.35,1.31-3.79,2.05-5.58,2.05c-3.57,0-5.67-2.14-6.06-4.71h15.65V170.72z M345.38,168.19
				c0.22-2.09,1.7-4.49,5.15-4.49c3.66,0,5.06,2.49,5.23,4.49H345.38z"/>
			<polygon class="st0" points="331.78,180.75 340.24,159.69 334.31,159.69 328.77,174.34 323.28,159.69 317.35,159.69 
				325.81,180.75 			"/>
			<path class="st0" d="M317.22,170.72c0-6.85-4.23-11.55-10.55-11.55c-6.37,0-10.9,4.93-10.9,11.03c0,6.76,4.84,11.08,11.25,11.08
				c3.27,0,6.58-1,8.68-2.92l-2.49-3.66c-1.35,1.31-3.79,2.05-5.58,2.05c-3.57,0-5.67-2.14-6.06-4.71h15.65V170.72z M301.52,168.19
				c0.22-2.09,1.7-4.49,5.14-4.49c3.66,0,5.06,2.49,5.23,4.49H301.52z"/>
			<path class="st0" d="M288.7,180.75v-13.91c0.92-1.35,3.36-2.4,5.19-2.4c0.65,0,1.13,0.04,1.53,0.13v-5.41
				c-2.62,0-5.19,1.53-6.72,3.36v-2.83h-5.54v21.06H288.7z"/>
			<path class="st0" d="M269.6,159.16c-6.93,0-11.12,5.06-11.12,11.03c0,5.97,4.19,11.08,11.12,11.08c6.98,0,11.16-5.1,11.16-11.08
				C280.76,164.22,276.58,159.16,269.6,159.16z M269.6,176.34c-3.45,0-5.36-2.83-5.36-6.15c0-3.27,1.92-6.1,5.36-6.1
				c3.49,0,5.41,2.83,5.41,6.1C275.01,173.51,273.09,176.34,269.6,176.34z"/>
			<path class="st0" d="M254.12,180.75v-16.22h4.27v-4.84h-4.27v-0.87c0-2.05,1.05-3.05,2.62-3.05c1,0,1.75,0.3,2.31,0.83l2.09-3.36
				c-1.26-1.44-3.44-2-5.49-2c-4.23,0-7.06,2.83-7.06,7.59v0.87h-3.49v4.84l3.49,0l0,16.22H254.12z"/>
			<path class="st0" d="M363.61,137.45c0-6.85-4.23-11.55-10.55-11.55c-6.37,0-10.9,4.93-10.9,11.03c0,6.76,4.84,11.08,11.25,11.08
				c3.27,0,6.58-1,8.68-2.92l-2.48-3.66c-1.35,1.31-3.79,2.05-5.58,2.05c-3.58,0-5.67-2.14-6.06-4.71h15.65V137.45z M347.91,134.92
				c0.22-2.09,1.7-4.49,5.15-4.49c3.66,0,5.06,2.49,5.23,4.49H347.91z"/>
			<path class="st0" d="M340.37,137.45c0-6.85-4.23-11.55-10.55-11.55c-6.37,0-10.9,4.93-10.9,11.03c0,6.76,4.84,11.08,11.25,11.08
				c3.27,0,6.58-1,8.68-2.92l-2.49-3.66c-1.35,1.31-3.79,2.05-5.58,2.05c-3.58,0-5.67-2.14-6.06-4.71h15.65V137.45z M324.67,134.92
				c0.22-2.09,1.7-4.49,5.15-4.49c3.66,0,5.06,2.49,5.23,4.49H324.67z"/>
			<path class="st0" d="M317.13,137.45c0-6.85-4.23-11.55-10.55-11.55c-6.37,0-10.9,4.93-10.9,11.03c0,6.76,4.84,11.08,11.25,11.08
				c3.27,0,6.58-1,8.68-2.92l-2.49-3.66c-1.35,1.31-3.79,2.05-5.58,2.05c-3.57,0-5.67-2.14-6.06-4.71h15.65V137.45z M301.43,134.92
				c0.22-2.09,1.7-4.49,5.15-4.49c3.66,0,5.06,2.49,5.23,4.49L301.43,134.92z"/>
			<path class="st0" d="M293.89,137.45c0-6.85-4.23-11.55-10.55-11.55c-6.37,0-10.9,4.93-10.9,11.03c0,6.76,4.84,11.08,11.25,11.08
				c3.27,0,6.58-1,8.68-2.92l-2.49-3.66c-1.35,1.31-3.79,2.05-5.58,2.05c-3.57,0-5.67-2.14-6.06-4.71h15.65V137.45z M278.19,134.92
				c0.22-2.09,1.7-4.49,5.15-4.49c3.66,0,5.06,2.49,5.23,4.49H278.19z"/>
			<path class="st0" d="M265.37,147.48v-13.91c0.92-1.35,3.36-2.4,5.19-2.4c0.65,0,1.13,0.04,1.53,0.13v-5.41
				c-2.62,0-5.19,1.53-6.72,3.36v-2.83l-5.54,0l0,21.06H265.37z"/>
			<path class="st0" d="M254.12,147.48v-16.22h4.27v-4.84h-4.27v-0.87c0-2.05,1.05-3.05,2.62-3.05c1,0,1.75,0.3,2.31,0.83l2.09-3.36
				c-1.26-1.44-3.44-2-5.49-2c-4.23,0-7.06,2.83-7.06,7.59v0.87h-3.49v4.84h3.49v16.22H254.12z"/>
			<path class="st0" d="M382.27,114.74c2.31,0,3.79-0.61,4.62-1.35l-1.18-4.23c-0.3,0.35-1.09,0.65-1.92,0.65
				c-1.22,0-1.92-1-1.92-2.35v-9.46h4.27v-4.84l-4.27,0V87.4h-5.54v5.76h-3.49v4.84h3.49v10.94
				C376.34,112.73,378.39,114.74,382.27,114.74"/>
			<path class="st0" d="M362.87,114.74c5.84,0,9.16-2.83,9.16-6.72c0-8.5-12.51-5.89-12.51-8.98c0-1.18,1.31-2.05,3.31-2.05
				c2.57,0,4.97,1.13,6.24,2.44l2.22-3.92c-2.09-1.66-4.93-2.88-8.46-2.88c-5.58,0-8.63,3.1-8.63,6.63c0,8.28,12.47,5.45,12.47,8.89
				c0,1.31-1.13,2.22-3.53,2.22c-2.62,0-5.71-1.44-7.28-2.92l-2.4,4.01C355.67,113.52,359.2,114.74,362.87,114.74"/>
			<path class="st0" d="M352.14,104.18c0-6.85-4.23-11.55-10.55-11.55c-6.37,0-10.9,4.93-10.9,11.03c0,6.76,4.84,11.07,11.25,11.07
				c3.27,0,6.58-1,8.68-2.92l-2.49-3.66c-1.35,1.31-3.79,2.05-5.58,2.05c-3.57,0-5.67-2.14-6.06-4.71h15.65V104.18z M336.44,101.66
				c0.22-2.09,1.7-4.49,5.15-4.49c3.66,0,5.06,2.49,5.23,4.49H336.44z"/>
			<path class="st0" d="M323.62,114.21V100.3c0.92-1.35,3.36-2.4,5.19-2.4c0.65,0,1.13,0.04,1.53,0.13v-5.41
				c-2.62,0-5.19,1.53-6.72,3.36v-2.83h-5.54v21.06H323.62z"/>
			<path class="st0" d="M314.95,104.18c0-6.85-4.23-11.55-10.55-11.55c-6.37,0-10.9,4.93-10.9,11.03c0,6.76,4.84,11.07,11.25,11.07
				c3.27,0,6.58-1,8.68-2.92l-2.49-3.66c-1.35,1.31-3.79,2.05-5.58,2.05c-3.58,0-5.67-2.14-6.06-4.71h15.65V104.18z M299.25,101.66
				c0.22-2.09,1.7-4.49,5.15-4.49c3.66,0,5.06,2.49,5.23,4.49H299.25z"/>
			<path class="st0" d="M288.05,114.74c2.31,0,3.79-0.61,4.62-1.35l-1.18-4.23c-0.3,0.35-1.09,0.65-1.92,0.65
				c-1.22,0-1.92-1-1.92-2.35v-9.46h4.27v-4.84h-4.27V87.4h-5.54v5.76h-3.49v4.84h3.49v10.94
				C282.12,112.73,284.17,114.74,288.05,114.74"/>
			<path class="st0" d="M276.4,114.21V99.35c0-4.1-2.22-6.72-6.89-6.72c-3.4,0-6.02,1.66-7.37,3.23v-2.7h-5.54v21.06h5.54V100
				c0.96-1.22,2.62-2.44,4.8-2.44c2.36,0,3.88,1,3.88,3.92v12.73H276.4z"/>
			<rect x="247.32" y="93.15" class="st0" width="5.54" height="21.06"/>
			<path class="st0" d="M250.07,90.89c1.83,0,3.31-1.48,3.31-3.31c0-1.83-1.48-3.27-3.31-3.27c-1.79,0-3.27,1.44-3.27,3.27
				C246.8,89.4,248.28,90.89,250.07,90.89"/>
			<path class="st0" d="M320.66,70.92c0-6.85-4.23-11.55-10.55-11.55c-6.37,0-10.9,4.93-10.9,11.03c0,6.76,4.84,11.08,11.25,11.08
				c3.27,0,6.58-1,8.68-2.92l-2.48-3.66c-1.35,1.31-3.79,2.05-5.58,2.05c-3.58,0-5.67-2.14-6.06-4.71h15.65V70.92z M304.96,68.39
				c0.22-2.09,1.7-4.49,5.15-4.49c3.66,0,5.06,2.49,5.23,4.49H304.96z"/>
			<polygon class="st0" points="290.49,80.95 298.95,59.89 293.02,59.89 287.48,74.54 281.99,59.89 276.06,59.89 284.51,80.95 			
				"/>
			<rect x="268.91" y="59.89" class="st0" width="5.54" height="21.06"/>
			<polygon class="st0" points="265.72,80.95 265.72,75.5 253.43,75.5 253.43,51.86 247.19,51.86 247.19,80.95 			"/>
		</g>
	</g>
	<path class="st1" d="M260.13,6.93c-3.45-3.45-8.03-5.35-12.91-5.35h-0.01c-4.88,0-9.46,1.9-12.91,5.35
		c-3.45,3.45-5.35,8.03-5.35,12.91c0,4.88,1.9,9.46,5.35,12.91c3.45,3.45,8.03,5.35,12.91,5.35c4.88,0,9.46-1.9,12.91-5.35
		c3.45-3.45,5.35-8.03,5.35-12.91C265.48,14.96,263.58,10.38,260.13,6.93z M247.22,33.48c-7.52,0-13.65-6.12-13.65-13.65
		c0-7.52,6.12-13.65,13.65-13.65c7.53,0,13.65,6.12,13.65,13.65S254.74,33.48,247.22,33.48z M252.46,21.59
		c-0.42,0.58-1.34,0.96-2.05,0.96c-1.36,0-2.37-0.83-2.37-2.41c0-1.56,1-2.39,2.37-2.39c0.72,0,1.63,0.38,2.05,0.96V21.59z
		 M255.88,24.81l0-9.83l-3.42,0v1.27c-0.42-1.8-3.42-1.62-4.02-1.61l-5.39,0.06v-0.45c0-0.83,0.47-1.27,1.18-1.27
		c0.31,0,0.63,0.07,0.89,0.22l0.63-2.35c-0.54-0.29-1.34-0.49-2.28-0.49c-2.23,0-3.86,1.5-3.86,3.8v0.54l-1.79,0v2.99l1.79,0v7.79
		l3.44,0v-7.79h1.74c-0.19,0.7-0.28,1.51-0.28,2.44c0,3.64,2.12,5.45,4.76,5.45c1.23,0,2.3-0.51,3.19-1.56v0.83
		c0,2.01-1.68,2.62-2.82,2.62c-1.25,0-2.46-0.36-3.28-1.25l-1.5,2.46c1.39,1.14,2.93,1.61,4.78,1.61
		C252.32,30.28,255.88,29.21,255.88,24.81 M206.93,128.39v66.15h-95.6v-0.02c-0.56,0.01-1.11,0.02-1.67,0.02
		c-53.72,0-97.27-43.55-97.27-97.27c0-8.34,1.05-16.43,3.03-24.16C17.24,62.5,8.72,45.46,0,34.25c14.09,1.62,34.69,0.53,41.01-5.89
		C58.6,10.84,82.86,0,109.66,0c25.6,0,48.88,9.91,66.25,26.09l1.44,2.24l-65.4,65.4c-1.47,1.47-1.47,3.84,0,5.31
		c0.73,0.73,1.69,1.1,2.65,1.1s1.92-0.37,2.65-1.1l93.57-93.57C241.88,40.8,240.59,94.62,206.93,128.39z M69.04,59.61
		c7.56,0,13.69-6.13,13.69-13.69c0-7.56-6.13-13.69-13.69-13.69c-2.55,0-4.93,0.71-6.98,1.93c0.09,0,0.17-0.03,0.26-0.03
		c4.1,0,7.42,3.32,7.42,7.42s-3.32,7.42-7.42,7.42c-3.11,0-5.76-1.92-6.86-4.64c-0.01,0.11-0.03,0.21-0.03,0.32
		c-0.03,0.34-0.06,0.68-0.06,1.03c0.02,1.99,0.42,3.88,1.1,5.64C58.57,56.2,63.4,59.61,69.04,59.61z M96.69,158.51
		c0-4.44-2.66-7.53-8.5-7.53c-4.3,0-7.33,1.84-8.87,3.54V142.4h-8.18v33.28h8.18v-15.57c0.96-1.1,2.55-2.34,4.94-2.34
		c2.6,0,4.25,0.95,4.25,3.89v14.02h8.18V158.51z M124.08,151.58h-8.18v15.57c-0.96,1.15-2.55,2.35-4.89,2.35
		c-2.66,0-4.25-1-4.25-3.89v-14.02h-8.18v17.16c0,4.44,2.6,7.53,8.45,7.53c4.3,0,7.28-1.8,8.87-3.49v2.89h8.18V151.58z
		 M198.97,158.21c0-4.94-2.97-7.23-7.7-7.23c-4.04,0-7.38,2.19-8.87,4.29c-1.06-2.84-3.61-4.29-7.28-4.29
		c-3.86,0-7.03,1.96-8.28,3.35c-0.05-0.11-0.11-0.21-0.16-0.31v-0.09h-0.05c-1.24-2.11-3.59-3.12-6.72-3.12
		c-1.02,0-1.99,0.14-2.9,0.38c-3.1,0.58-5.6,2.36-6.83,4.09c-1.06-2.84-3.61-4.29-7.28-4.29c-4.04,0-7.33,2.14-8.45,3.54v-2.94
		h-8.18v24.1h8.18v-15.57c0.85-1,2.39-2.34,4.57-2.34c2.5,0,3.4,1.4,3.4,3.24v14.67h8.18v-15.57c0.8-1,2.39-2.34,4.62-2.34
		c1.96,0,2.96,0.9,3.28,2.21v15.7h0.12h8.06h0.06v-15.64c0.86-0.99,2.38-2.27,4.5-2.27c2.5,0,3.4,1.4,3.4,3.24v14.67h8.18v-15.57
		c0.8-1,2.39-2.34,4.62-2.34c2.44,0,3.4,1.4,3.4,3.24v14.67h8.13V158.21z"/>
</g>
</svg>
