<svg width="53" height="41" viewBox="0 0 53 41" fill="none" xmlns="http://www.w3.org/2000/svg">
<path d="M15.9379 23.2493H45.1738C45.8582 23.2493 46.4449 22.8635 46.7382 22.1882L52.8983 7.04233C53.0938 6.55998 52.996 5.98116 52.7027 5.49881C52.4094 5.01646 51.8227 4.72704 51.3338 4.72704H19.8491C18.8713 4.72704 18.1868 5.49881 18.1868 6.36704C18.1868 7.33174 18.9691 8.00703 19.8491 8.00703H48.7916L44.0004 19.8729H16.7201L9.77787 1.06117C9.58231 0.385882 8.89785 0 8.2134 0H1.66223C0.684448 0 0 0.771762 0 1.63999C0 2.6047 0.782227 3.27999 1.66223 3.27999H7.04006L13.2979 20.3552C11.1468 21.3199 9.68008 23.4423 9.68008 25.854C9.68008 29.2305 12.4179 31.9317 15.8401 31.9317H46.9338C47.9116 31.9317 48.596 31.1599 48.596 30.2917C48.596 29.327 47.8138 28.6517 46.9338 28.6517H15.8401C14.2757 28.6517 13.1023 27.3976 13.1023 25.9505C13.2001 24.407 14.3735 23.2493 15.9379 23.2493Z" fill="rgb(255, 108, 0)"/>
<path d="M22.2937 35.4047C20.7293 35.4047 19.4582 36.6588 19.4582 38.2024C19.4582 39.7459 20.7293 41 22.2937 41C23.8582 41 25.1293 39.7459 25.1293 38.2024C25.1293 36.6588 23.8582 35.4047 22.2937 35.4047Z" fill="rgb(255, 108, 0)"/>
<path d="M38.0355 35.4047C36.4711 35.4047 35.2 36.6588 35.2 38.2024C35.2 39.7459 36.4711 41 38.0355 41C39.6 41 40.8711 39.7459 40.8711 38.2024C40.8711 36.6588 39.6 35.4047 38.0355 35.4047Z" fill="rgb(255, 108, 0)"/>
</svg>
