<svg width="218" height="43" viewBox="0 0 218 43" fill="none" xmlns="http://www.w3.org/2000/svg">
<path d="M77.0061 25.1561C77.0061 21.5546 75.0754 20.4086 72.0967 20.4086C69.3386 20.4086 67.4631 21.9365 66.3598 23.3008V42.3452H56.8168V1.58249H66.3046V16.4251C68.0698 14.3515 71.6002 12.1142 76.6199 12.1142C83.4049 12.1142 86.4939 15.8794 86.4939 21.3363V42.2906H77.0061V25.1561ZM108.779 42.2906H118.267V12.8236H108.779V31.868C107.676 33.2868 105.801 34.7602 103.098 34.7602C100.009 34.7602 98.1883 33.5596 98.1883 30.0127V12.8236H88.7004V33.7779C88.7004 39.1802 91.7343 43 98.5192 43C103.539 43 106.959 40.8173 108.835 38.7437V42.2906H108.779ZM196.211 12.1142C191.522 12.1142 187.661 14.7881 185.896 17.3528C184.682 13.8604 181.703 12.1142 177.456 12.1142C172.988 12.1142 169.292 14.5152 167.858 16.2069C167.803 16.0977 167.747 15.934 167.692 15.8249V15.7157H167.637C166.203 13.151 163.445 11.8959 159.859 11.8959C158.701 11.8959 157.653 12.0596 156.605 12.3325C152.964 12.9873 149.985 15.2246 148.551 17.3528C147.338 13.8604 144.359 12.1142 140.111 12.1142C135.423 12.1142 131.616 14.7335 130.292 16.4251V12.8236H120.805V42.2906H130.292V23.2462C131.285 22.0457 133.051 20.3541 135.588 20.3541C138.512 20.3541 139.56 22.0457 139.56 24.3376V42.2906H149.048V23.2462C149.985 22.0457 151.806 20.3541 154.398 20.3541C156.66 20.3541 157.818 21.4454 158.204 23.0825V42.2906H158.315H167.692H167.747V23.1916C168.74 21.9911 170.506 20.4086 172.988 20.4086C175.911 20.4086 176.96 22.1003 176.96 24.3921V42.3452H186.447V23.2462C187.385 22.0457 189.205 20.3541 191.798 20.3541C194.611 20.3541 195.77 22.0457 195.77 24.3376V42.2906H205.202V20.9543C205.202 14.8972 201.727 12.1142 196.211 12.1142ZM218 18.1713C218 19.5901 217.448 20.8997 216.455 21.882C215.463 22.8642 214.139 23.4099 212.704 23.4099C211.27 23.4099 209.946 22.8642 208.953 21.882C207.961 20.8997 207.409 19.5901 207.409 18.1713C207.409 16.7525 207.961 15.4429 208.953 14.4607C209.946 13.4784 211.27 12.9327 212.704 12.9327C214.139 12.9327 215.463 13.4784 216.455 14.4607C217.448 15.4429 218 16.7525 218 18.1713ZM216.676 18.1713C216.676 15.9886 214.911 14.2424 212.704 14.2424C210.498 14.2424 208.733 15.9886 208.733 18.1713C208.733 20.3541 210.498 22.1003 212.704 22.1003C214.911 22.0457 216.676 20.2995 216.676 18.1713ZM215.242 16.7525V19.5901C215.242 20.8452 214.194 21.1726 213.422 21.1726C212.87 21.1726 212.429 21.0634 212.042 20.736L212.484 20.0266C212.704 20.2995 213.091 20.4086 213.422 20.4086C213.753 20.4086 214.249 20.2449 214.249 19.6447V19.4264C213.973 19.7538 213.697 19.8629 213.311 19.8629C212.539 19.8629 211.932 19.3173 211.932 18.2805C211.932 18.0076 211.932 17.7893 211.987 17.5711H211.491V19.8084H210.498V17.5711H210.002V16.698H210.498V16.5343C210.498 15.8794 210.994 15.4429 211.601 15.4429C211.877 15.4429 212.098 15.4975 212.263 15.6066L212.098 16.2614C212.042 16.2069 211.932 16.2069 211.822 16.2069C211.601 16.2069 211.491 16.316 211.491 16.5888V16.698H213.035C213.201 16.698 214.083 16.6434 214.194 17.1345V16.7525H215.242ZM214.249 17.8439C214.139 17.6802 213.863 17.5711 213.642 17.5711C213.256 17.5711 212.98 17.7893 212.98 18.2805C212.98 18.717 213.256 18.9898 213.642 18.9898C213.863 18.9898 214.139 18.8807 214.249 18.717V17.8439ZM45.4534 27.8845V42.236H24.4367C24.3264 42.236 24.2161 42.236 24.0506 42.236C12.246 42.236 2.70294 32.7957 2.70294 21.118C2.70294 19.3173 2.92358 17.5711 3.36488 15.8794C3.75101 13.5876 1.87551 9.8769 0 7.42132C3.08907 7.74873 7.61235 7.53046 8.9914 6.16624C12.8527 2.34645 18.2034 0 24.1058 0C29.7323 0 34.8623 2.12817 38.6685 5.67513L38.9995 6.16624L24.6574 20.3541C24.3264 20.6815 24.3264 21.1726 24.6574 21.5C24.8229 21.6637 25.0435 21.7183 25.2642 21.7183C25.4848 21.7183 25.7055 21.6637 25.871 21.5L46.336 1.20051C53.1209 8.8401 52.8451 20.5723 45.4534 27.8845ZM15.1695 12.9327C16.8244 12.9327 18.2034 11.6231 18.2034 9.93147C18.2034 8.29442 16.8796 6.9302 15.1695 6.9302C14.6179 6.9302 14.0663 7.09391 13.625 7.36675H13.6802C14.5628 7.36675 15.335 8.07614 15.335 9.00381C15.335 9.93147 14.6179 10.6409 13.6802 10.6409C13.0182 10.6409 12.4114 10.2043 12.1908 9.65863V9.7132C12.1908 9.76777 12.1908 9.8769 12.1908 9.93147C12.1908 10.368 12.3011 10.75 12.4114 11.132C12.8527 12.2233 13.956 12.9327 15.1695 12.9327Z" fill="#FF6C00"/>
</svg>
