<?xml version="1.0" encoding="UTF-8"?>
<svg width="320px" height="200px" viewBox="0 0 320 200" version="1.1" xmlns="http://www.w3.org/2000/svg" xmlns:xlink="http://www.w3.org/1999/xlink">
    <!-- Generator: Sketch 48.2 (47327) - http://www.bohemiancoding.com/sketch -->
    <title>rocket</title>
    <desc>Created with Sketch.</desc>
    <defs></defs>
    <g id="Page-1" stroke="none" stroke-width="1" fill="none" fill-rule="evenodd">
        <g id="rocket" transform="translate(60.000000, 0.000000)" fill="#FF6C00" fill-rule="nonzero">
            <path d="M188.962025,41.7289377 C181.276374,40.4276973 174.170315,36.7683831 168.603978,31.2454212 C163.089585,25.7660826 159.409021,18.6743883 158.079566,10.967033 C169.097793,8.00829444 180.540776,7.01666336 191.895118,8.03663004 C192.920715,19.3498268 191.927175,30.7576246 188.962025,41.7142857 L188.962025,41.7289377 Z M164.224231,84.2967033 L95.6528029,152.611722 L46.7522604,103.893773 L115.323689,35.5970696 C125.402131,25.6109264 137.515218,17.9783499 150.813743,13.2344322 C152.550078,22.1062396 156.887095,30.241714 163.25859,36.5787546 C169.689909,42.9621151 177.843309,47.2739814 186.690778,48.970696 C181.878933,62.2891929 174.207981,74.3597528 164.231465,84.3113553 L164.224231,84.2967033 Z M132.307414,148.809524 L103.19349,177.805861 L99.7359855,159.208791 L135.58047,123.505495 L132.307414,148.809524 Z M76.6726944,157.615385 L41.7323689,122.81685 L50.358047,118.168498 L81.3453888,149.025641 L76.6726944,157.615385 Z M40.1446655,99.8388278 L21.4755877,96.3919414 L50.5678119,67.3992674 L75.9746835,64.1355311 L40.1446655,99.8388278 Z M199.092224,4.16117216 C198.86589,2.43325331 197.507475,1.08309653 195.797468,0.886446886 C180.195581,-1.01986632 164.370299,0.624497781 149.475588,5.6996337 C134.653806,10.7858223 121.152103,19.1850021 109.971067,30.2747253 L84.7377939,55.4029304 L48.3218807,60.0732601 C47.494454,60.177521 46.723449,60.5531714 46.1265823,61.1428571 L11.0126582,96.1282051 C10.0228561,97.1123377 9.66105782,98.5752548 10.0759494,99.9157509 C10.5047754,101.26606 11.6394369,102.262793 13.0198915,102.501832 L39.5696203,107.40293 L44.7884268,112.59707 L33.681736,118.589744 C32.6347915,119.148189 31.9124449,120.177607 31.7359855,121.362637 C31.567427,122.545592 31.971221,123.738423 32.8209765,124.567766 L74.9041591,166.520147 C75.6214116,167.226991 76.5833342,167.621426 77.5840868,167.619048 C77.7655355,167.619497 77.9467983,167.607258 78.1265823,167.582418 C79.3036853,167.415001 80.3348597,166.697489 80.9113924,165.644689 L86.925859,154.578755 L92.1446655,159.776557 L97.0596745,186.223443 C97.3194355,187.614779 98.3217274,188.744283 99.6600362,189.153846 C100.024725,189.265796 100.403739,189.322575 100.78481,189.322344 C101.784536,189.324937 102.745409,188.9304 103.461121,188.223443 L138.575045,153.249084 C139.169865,152.660478 139.552004,151.886402 139.660036,151.051282 L144.361664,114.787546 L169.59132,89.6593407 C180.664761,78.6172575 189.103346,65.1606643 194.264014,50.3150183 C199.355554,35.5110179 201.011391,19.7180204 199.103074,4.16117216 L199.092224,4.16117216 Z" id="Shape"></path>
            <path d="M138.759494,82.6593407 C132.702206,88.6374037 123.04463,88.6374037 116.987342,82.6593407 C114.107513,79.8057465 112.484295,75.8973437 112.484295,71.8168498 C112.484295,67.736356 114.107513,63.8279531 116.987342,60.974359 C123.041068,54.9909262 132.702151,54.9909262 138.755877,60.974359 C141.63479,63.8284536 143.257369,67.7366692 143.257369,71.8168498 C143.257369,75.8970304 141.63479,79.8052461 138.755877,82.6593407 M111.631103,55.6410256 C107.335695,59.898818 104.914717,65.7295312 104.914717,71.8168498 C104.914717,77.9041685 107.335695,83.7348816 111.631103,87.992674 C120.668202,96.9099377 135.075016,96.9099377 144.112116,87.992674 C148.407524,83.7348816 150.828502,77.9041685 150.828502,71.8168498 C150.828502,65.7295312 148.407524,59.898818 144.112116,55.6410256 C135.075793,46.7218267 120.667425,46.7218267 111.631103,55.6410256" id="Shape"></path>
            <path d="M49.5479204,150.52381 C48.0597967,149.051523 45.6834221,149.051523 44.1952984,150.52381 L11.7287523,182.875458 C11.0193362,183.57592 10.6192577,184.536847 10.6192577,185.540293 C10.6192577,186.543739 11.0193362,187.504667 11.7287523,188.205128 C13.2160926,189.679361 15.594034,189.679361 17.0813743,188.205128 L49.5479204,155.857143 C50.2575461,155.156048 50.6577058,154.194517 50.6577058,153.190476 C50.6577058,152.186435 50.2575461,151.224905 49.5479204,150.52381" id="Shape"></path>
            <path d="M54.5605787,160.835165 L39.9240506,175.410256 C39.2146346,176.110718 38.8145561,177.071645 38.8145561,178.075092 C38.8145561,179.078538 39.2146346,180.039465 39.9240506,180.739927 C41.4126196,182.2146 43.7917203,182.2146 45.2802893,180.739927 L59.9168174,166.168498 C60.626443,165.467403 61.0266027,164.505872 61.0266027,163.501832 C61.0266027,162.497791 60.626443,161.53626 59.9168174,160.835165 C58.4274659,159.362436 56.0499301,159.362436 54.5605787,160.835165" id="Shape"></path>
            <path d="M34.8028933,182.07326 C33.2172266,182.078291 31.7989121,183.07335 31.2368897,184.575092 C30.7027915,186.104833 31.195214,187.809092 32.4593128,188.805861 C33.776928,189.823432 35.5885576,189.876489 36.9620253,188.937729 C38.4073529,187.934223 38.9635887,186.044119 38.2965642,184.40293 C37.6942325,182.990797 36.321694,182.075552 34.8028933,182.07326" id="Shape"></path>
            <path d="" id="Shape"></path>
            <path d="M24.0940325,191.175824 L22.079566,193.186813 C21.3630291,193.885937 20.9567009,194.849242 20.9532936,195.856931 C20.9498863,196.864619 21.3496906,197.830721 22.0614828,198.534799 C23.5500518,200.009472 25.9291525,200.009472 27.4177215,198.534799 L29.4321881,196.531136 C30.1427359,195.830546 30.5435389,194.868826 30.5435389,193.864469 C30.5435389,192.860112 30.1427359,191.898392 29.4321881,191.197802 C27.9432844,189.727456 25.5684697,189.727456 24.079566,191.197802" id="Shape"></path>
            <path d="M21.3670886,157.989011 C19.8777372,156.516282 17.5002014,156.516282 16.0108499,157.989011 L1.37793852,172.564103 C0.667390643,173.264693 0.266587728,174.226412 0.266587728,175.230769 C0.266587728,176.235126 0.667390643,177.196846 1.37793852,177.897436 C2.8668422,179.367782 5.2416569,179.367782 6.73056058,177.897436 L21.3670886,163.322344 C22.0748783,162.620245 22.4737591,161.65909 22.4737591,160.655678 C22.4737591,159.652265 22.0748783,158.69111 21.3670886,157.989011" id="Shape"></path>
            <path d="M27.4068716,156.542125 C28.9453065,156.157054 30.0831752,154.840796 30.2567812,153.245421 C30.3950696,151.687783 29.5729757,150.204473 28.1880651,149.512821 C26.7062229,148.775356 24.925034,149.0775 23.761302,150.263736 C22.5483544,151.532084 22.3707726,153.484616 23.3345389,154.956044 C23.3019892,154.908425 23.2766727,154.879121 23.3345389,154.956044 C23.3924051,155.032967 23.3743219,155.014652 23.3345389,154.956044 C24.2453584,156.264279 25.8522879,156.876963 27.3887884,156.501832" id="Shape"></path>
            <path d="M37.1971067,147.553114 L39.2115732,145.545788 C39.9211989,144.844692 40.3213586,143.883162 40.3213586,142.879121 C40.3213586,141.87508 39.9211989,140.913549 39.2115732,140.212454 C37.7242329,138.738221 35.3462915,138.738221 33.8589512,140.212454 L31.8444846,142.216117 C31.134859,142.917212 30.7346993,143.878743 30.7346993,144.882784 C30.7346993,145.886825 31.134859,146.848355 31.8444846,147.549451 C33.3318249,149.023684 35.7097664,149.023684 37.1971067,147.549451" id="Shape"></path>
        </g>
    </g>
</svg>