<?xml version="1.0" encoding="UTF-8"?>
<svg width="574px" height="574px" viewBox="0 0 574 574" version="1.1" xmlns="http://www.w3.org/2000/svg" xmlns:xlink="http://www.w3.org/1999/xlink">
    <defs></defs>
    <g id="Page-1" stroke="none" stroke-width="1" fill="none" fill-rule="evenodd">
        <g id="iconchoose" transform="translate(5.000000, 199.000000)">
            <g id="Group">
                <rect id="Rectangle-path" stroke="#F36D21" stroke-width="10" stroke-linejoin="round" x="0.42" y="0.66" width="562.97" height="174.52" rx="84.75"></rect>
                <path d="M490.23,103.2 C490.23,96.66 496.56,90.54 502.89,90.54 C509.768545,90.8064297 515.28357,96.3214553 515.55,103.2 L515.55,150.68 L553.18,162.79 C561.07,165.32 562.86,174.66 560.99,182.74 L553.53,226.65 L490.23,226.65 L457.06,178.76 C453.43,173.21 453.34,162.76 461.32,162.76 C469.3,162.76 474.51,164.04 490.47,188.63 L490.23,103.2 Z" id="Shape" fill="#FFFFFF" fill-rule="nonzero"></path>
                <path d="M490.23,103.2 C490.23,96.66 496.56,90.54 502.89,90.54 C509.768545,90.8064297 515.28357,96.3214553 515.55,103.2 L515.55,150.68 L553.18,162.79 C561.07,165.32 562.86,174.66 560.99,182.74 L553.53,226.65 L490.23,226.65 L457.06,178.76 C453.43,173.21 453.34,162.76 461.32,162.76 C469.3,162.76 474.51,164.04 490.47,188.63 L490.23,103.2 Z" id="Shape" stroke="#F36D21" stroke-width="9" stroke-linejoin="round"></path>
            </g>
            <g id="humm-logo" transform="translate(117.000000, 59.000000)" fill="#FF6B00" fill-rule="nonzero">
                <path d="M62.3837438,0.667268255 L32.8843704,30.4708484 C32.8157704,30.5415926 32.7335705,30.5979447 32.6429706,30.6360533 C32.5523707,30.6743646 32.4551708,30.6938243 32.3569708,30.6932162 C32.208971,30.6924053 32.0647711,30.6476075 31.9419712,30.5642956 C31.8191713,30.4809837 31.7233714,30.3630092 31.6665715,30.2249669 C31.6097715,30.0871273 31.5945715,29.935301 31.6225715,29.7885423 C31.6507715,29.6417837 31.7211714,29.5067819 31.8247713,29.4003617 L52.9527523,8.05443781 C47.4379573,2.78866047 40.1097639,-0.0994848728 32.5223707,0.00261779486 C24.9351775,0.104700192 17.6856041,3.18900347 12.3116089,8.60129622 C10.4125706,10.5477132 4.22923619,10.8767445 0,10.3855084 C2.61461764,13.7871266 5.17417534,18.9543486 4.62831583,22.1706739 C3.52723682,26.5280273 3.42587691,31.0818022 4.3319161,35.4845617 C5.23795528,39.8873212 7.12749358,44.022915 9.85633112,47.5757311 C12.5851687,51.1285472 16.0812055,54.0045302 20.0777819,55.984353 C24.0741783,57.9643785 28.4655743,58.9957432 32.9165703,59 L33.4211699,59 L62.117544,59 L62.117544,38.9378495 C67.1191395,33.8675814 69.949537,27.0155336 69.9993369,19.8576035 C70.0489369,12.6994301 67.3141393,5.80795615 62.3837438,0.667268255 Z M18.884823,15.7566722 C18.4300234,15.7566722 17.9796838,15.6662657 17.5595042,15.4903175 C17.1393446,15.314572 16.7575449,15.0567308 16.4359652,14.7319969 C16.1143655,14.4070197 15.8592657,14.0212918 15.6852259,13.5967863 C15.511186,13.1722605 15.4216061,12.7172885 15.4216061,12.2577961 C15.4146461,12.1204024 15.4146461,11.9827249 15.4216061,11.8453313 C15.548926,12.1642273 15.7597058,12.442116 16.0313656,12.6492403 C16.3030453,12.8563849 16.625365,12.9849406 16.9638047,13.0211843 C17.3022644,13.0574077 17.6440841,12.9999408 17.9526838,12.8549456 C18.2612835,12.7099303 18.5250233,12.4828395 18.7156631,12.1979777 C18.906303,11.9131362 19.0166429,11.5812468 19.0348828,11.2378843 C19.0531428,10.894542 18.9785829,10.5526187 18.819223,10.2487837 C18.6598832,9.94494867 18.4217234,9.69063458 18.1302637,9.513085 C17.8388039,9.33551514 17.5050242,9.24141933 17.1646845,9.24083149 L17.0958846,9.24083149 C17.5543442,8.96713877 18.0690837,8.80394072 18.6001232,8.76392669 C19.1311628,8.72391266 19.6641823,8.80815699 20.1577818,9.0101123 C20.6513814,9.2120676 21.092181,9.52632165 21.4459807,9.92840792 C21.7997804,10.3304942 22.0569801,10.8095882 22.19778,11.3284733 C22.3385799,11.8473381 22.3589799,12.3920275 22.2573799,12.9201762 C22.15598,13.4483046 21.9351802,13.945703 21.6123805,14.3736544 C21.2897808,14.8015248 20.8737812,15.1485563 20.3965816,15.3877486 C19.919602,15.6267381 19.3944025,15.7514019 18.861883,15.75201 L18.884823,15.7566722 Z" id="Shape"></path>
                <path d="M127.551162,59 L141,59 L141,28.5735204 C141,20.6998563 136.634273,15.2132398 127.028558,15.2132398 C119.954972,15.2132398 114.980968,18.4859938 112.449037,21.4939241 L112.449037,0 L99,0 L99,59 L112.449037,59 L112.449037,31.4034211 C114.021432,29.4784023 116.639036,27.2451625 120.567632,27.2451625 C124.843303,27.2451625 127.551162,28.9249367 127.551162,34.141885 L127.551162,59 Z" id="Shape"></path>
                <path d="M172.526991,57.9600195 L186,57.9600195 L186,16 L172.526991,16 L172.526991,43.1035241 C170.95101,45.1029985 168.323177,47.187519 164.47637,47.187519 C160.101241,47.187519 157.473209,45.4481388 157.473209,40.4094078 L157.473209,16 L144,16 L144,45.883083 C144,53.6161286 148.284679,59 157.911081,59 C165.0001,59 169.898958,55.8754991 172.526991,52.9212885 L172.526991,57.9600195 Z" id="Shape"></path>
                <path d="M298.385481,15.0031939 C291.763801,15.0031939 286.300618,18.8265857 283.870553,22.4749618 C282.128841,17.5221927 277.957063,15.0031939 271.960257,15.0031939 C265.338577,15.0031939 259.960694,18.7413572 258.139633,21.1705687 L258.139633,16.047739 L251.634993,16.047739 C249.72268,15.3167557 247.685393,14.9621653 245.638187,15.0031939 C239.016507,15.0031939 233.553323,18.8265857 231.121274,22.4749618 C229.381546,17.5221927 225.209768,15.0031939 219.210979,15.0031939 C212.589299,15.0031939 207.215383,18.7413572 205.390354,21.1705687 L205.390354,16.047739 L192,16.047739 L192,58 L205.390354,58 L205.390354,30.9012892 C206.780947,29.1622307 209.302263,26.8180495 212.863053,26.8180495 C216.94953,26.8180495 218.431374,29.247261 218.431374,32.4609715 L218.431374,57.9811704 L231.817562,57.9811704 L231.817562,30.9012892 C233.116903,29.1622307 235.727488,26.8180495 239.38548,26.8180495 C242.591182,26.8180495 244.233708,28.3870474 244.753444,30.6650278 L244.753444,58 L258.246754,58 L258.246754,30.7738428 C259.667102,29.0488569 262.14081,26.8180495 265.616299,26.8180495 C269.702776,26.8180495 271.178669,29.247261 271.178669,32.4609715 L271.178669,57.9811704 L284.568824,57.9811704 L284.568824,30.9012892 C285.870149,29.1622307 288.480734,26.8180495 292.136742,26.8180495 C296.133952,26.8180495 297.699112,29.247261 297.699112,32.4609715 L297.699112,57.9811704 L311,57.9811704 L311,27.5979897 C310.992065,19.0014033 306.120032,15.0031939 298.385481,15.0031939 Z" id="Shape"></path>
                <path d="M325.503735,24.4916596 C325.390608,24.610461 325.251868,24.7062374 325.093917,24.7722167 C324.935966,24.838196 324.765208,24.8732173 324.592316,24.8745717 C324.310566,24.8745717 324.039488,24.7729907 323.840982,24.5920797 C323.640342,24.4111687 323.529349,24.1660198 323.529349,23.910229 C323.529349,23.6546318 323.640342,23.4092894 323.840982,23.2283784 C324.039488,23.0476608 324.310566,22.9460798 324.592316,22.9460798 C324.767343,22.9474342 324.9381,22.982649 325.096051,23.0495957 C325.251868,23.1165425 325.392743,23.2132863 325.503735,23.3336357 L325.503735,24.4916596 Z M325.503735,22.3462679 C325.320171,21.6220434 323.977588,21.6957623 323.727855,21.700406 L321.341515,21.723431 L321.341515,21.5434874 C321.332978,21.4788625 321.339381,21.4132702 321.36286,21.3513541 C321.384205,21.2894381 321.420491,21.2323592 321.467449,21.1839873 C321.516542,21.1356154 321.576307,21.0971113 321.640342,21.070797 C321.70651,21.0444826 321.776948,21.031132 321.84952,21.031519 C321.98826,21.0297776 322.124867,21.061703 322.246531,21.1238126 L322.521878,20.2010697 C322.205977,20.0600172 321.855923,19.9919095 321.503735,20.0027448 C321.277481,19.9901681 321.051227,20.0209327 320.839915,20.0925231 C320.628602,20.1643071 320.434365,20.275369 320.27428,20.4189369 C320.11206,20.5623113 319.983991,20.7349023 319.900747,20.9254877 C319.817503,21.1158796 319.779082,21.3202026 319.78762,21.5251061 L319.78762,21.723431 L319,21.723431 L319,22.927505 L319.78762,22.927505 L319.78762,26.0556207 L321.315902,26.0556207 L321.315902,22.927505 L322.118463,22.927505 C322.028815,23.2469532 321.986126,23.5758823 321.992529,23.9055853 C321.992529,25.3681589 322.933831,26.097027 324.099253,26.097027 C324.372465,26.0964466 324.641409,26.0395612 324.886873,25.9310146 C325.132337,25.8222745 325.345784,25.664582 325.514408,25.4695464 L325.514408,25.8017648 C325.516542,25.9470741 325.484525,26.0910289 325.420491,26.2245354 C325.358591,26.3578485 325.264674,26.4778108 325.147279,26.5764896 C325.029883,26.6753618 324.891142,26.750435 324.739594,26.7974525 C324.588047,26.84447 324.425827,26.8618839 324.267876,26.8491137 C323.998933,26.8613035 323.732124,26.8233799 323.482391,26.7376648 C323.230523,26.6519498 323.002134,26.5201847 322.812166,26.3508829 L322.118463,27.3519883 C322.713981,27.7952686 323.467449,28.0249385 324.235859,27.9978502 C325.426894,27.9978502 327,27.5686945 327,25.8017648 L327,21.8526808 L325.473853,21.8526808 L325.503735,22.3462679 Z" id="Shape"></path>
                <path d="M322.998852,29.9786045 C321.81788,29.9756521 320.664324,29.6226316 319.685804,28.9644614 C318.705176,28.3062912 317.941762,27.3722842 317.490462,26.2805357 C317.041271,25.1887872 316.925282,23.9880115 317.157259,22.8302562 C317.389235,21.6725009 317.960742,20.6096435 318.795857,19.7755958 C319.630973,18.9417589 320.695957,18.374269 321.85584,18.1450376 C323.013614,17.9158063 324.213566,18.034956 325.303856,18.4875139 C326.394146,18.9400718 327.326271,19.705793 327.982132,20.6878816 C328.637993,21.6697594 328.988067,22.8241405 328.988067,24.0048823 C328.988067,25.5888349 328.357512,27.1074134 327.237698,28.2274205 C326.117883,29.3474275 324.599491,29.9771283 323.015723,29.9786045 L322.998852,29.9786045 Z M328.667517,18.3531805 C327.360013,17.0419014 325.639168,16.2243026 323.796008,16.0397787 C321.954957,15.8554658 320.105471,16.3154046 318.563881,17.3415681 C317.0244,18.3679424 315.887714,19.8966434 315.347841,21.6674397 C314.807968,23.4382359 314.89865,25.3414675 315.605124,27.0525835 C316.311599,28.7636995 317.589579,30.1770467 319.221851,31.0513734 C320.852014,31.9257001 322.737351,32.2072307 324.553095,31.8476728 C326.36884,31.4881149 328.005329,30.5100331 329.179975,29.0798152 C330.35462,27.6498081 330.997828,25.8562363 330.999937,24.0048823 C331.004154,22.9550998 330.797484,21.914807 330.396797,20.9447388 C329.996111,19.9744597 329.405625,19.0935956 328.661191,18.3531805 L328.667517,18.3531805 Z" id="Shape"></path>
            </g>
        </g>
    </g>
</svg>