<?xml version="1.0" encoding="UTF-8"?>
<svg width="320px" height="200px" viewBox="0 0 320 200" version="1.1" xmlns="http://www.w3.org/2000/svg" xmlns:xlink="http://www.w3.org/1999/xlink">
    <!-- Generator: Sketch 48.2 (47327) - http://www.bohemiancoding.com/sketch -->
    <title>click</title>
    <desc>Created with Sketch.</desc>
    <defs></defs>
    <g id="Page-1" stroke="none" stroke-width="1" fill="none" fill-rule="evenodd">
        <g id="click" transform="translate(4.000000, 46.000000)">
            <g id="Group">
                <rect id="Rectangle-path" stroke="#F36D21" stroke-width="6" stroke-linejoin="round" x="0.232340426" y="0.363436123" width="311.430213" height="96.1013216" rx="48.0506608"></rect>
                <path d="M271.191064,56.8281938 C271.191064,53.2268722 274.692766,49.8568282 278.194468,49.8568282 C281.999621,50.0035406 285.050486,53.040449 285.197872,56.8281938 L285.197872,82.9735683 L306.014468,89.6420705 C310.379149,91.0352423 311.369362,96.1784141 310.334894,100.627753 L306.208085,124.807269 L271.191064,124.807269 L252.841702,98.4361233 C250.833617,95.3799559 250.78383,89.6255507 255.198298,89.6255507 C259.612766,89.6255507 262.494894,90.3303965 271.32383,103.871145 L271.191064,56.8281938 Z" id="Shape" fill="#FFFFFF" fill-rule="nonzero"></path>
                <path d="M271.191064,56.8281938 C271.191064,53.2268722 274.692766,49.8568282 278.194468,49.8568282 C281.999621,50.0035406 285.050486,53.040449 285.197872,56.8281938 L285.197872,82.9735683 L306.014468,89.6420705 C310.379149,91.0352423 311.369362,96.1784141 310.334894,100.627753 L306.208085,124.807269 L271.191064,124.807269 L252.841702,98.4361233 C250.833617,95.3799559 250.78383,89.6255507 255.198298,89.6255507 C259.612766,89.6255507 262.494894,90.3303965 271.32383,103.871145 L271.191064,56.8281938 Z" id="Shape" stroke="#F36D21" stroke-width="6" stroke-linejoin="round"></path>
            </g>
            <g id="humm-logo" transform="translate(65.000000, 32.000000)" fill="#FF6B00" fill-rule="nonzero">
                <path d="M34.6785766,0.361908206 L18.2801334,16.5265618 C18.2419993,16.5649316 18.1963051,16.5954954 18.1459414,16.6161645 C18.0955777,16.6369435 18.0415451,16.6474979 17.9869566,16.6471681 C17.9046848,16.6467283 17.8245253,16.6224312 17.7562619,16.5772451 C17.6879985,16.532059 17.6347442,16.4680728 17.6031697,16.3932024 C17.571595,16.3184419 17.5631455,16.2360955 17.5787104,16.1564975 C17.5943866,16.0768996 17.6335213,16.0036783 17.6911115,15.9459589 L29.4359711,4.36850864 C26.3703448,1.51249381 22.2966663,-0.0539578971 18.0789009,0.00141982094 C13.8612467,0.0567865448 9.83127237,1.729629 6.84391552,4.66510981 C5.78825677,5.7207936 2.35099534,5.89925125 0,5.63281812 C1.45344304,7.47776358 2.87627874,10.2803247 2.57284022,12.0247723 C1.96076004,14.3880826 1.90441496,16.8579266 2.40807421,19.245864 C2.91173345,21.6338013 3.96211123,23.8768353 5.47904812,25.8037864 C6.99598502,27.7307375 8.93940124,29.2905927 11.1610631,30.3643948 C13.3826248,31.438307 15.8237634,31.9976912 18.298033,32 L18.5785355,32 L34.5305985,32 L34.5305985,21.1188336 C37.3109416,18.3688577 38.8843348,14.6524928 38.9120181,10.7702256 C38.9395903,6.88782649 37.4193403,3.15007791 34.6785766,0.361908206 Z M10.4979076,8.5459917 C10.2450885,8.5459917 9.9947487,8.49695767 9.76117454,8.40152814 C9.5276115,8.30620854 9.31537239,8.16636247 9.13660905,7.99023561 C8.9578346,7.81397679 8.81602685,7.60476843 8.71927965,7.37452816 C8.6225324,7.14427688 8.57273572,6.89751241 8.57273572,6.64829619 C8.56886671,6.57377757 8.56886671,6.49910503 8.57273572,6.42458647 C8.64351173,6.59754701 8.76068238,6.74826631 8.91169568,6.86060491 C9.06272005,6.97295452 9.24189474,7.04267965 9.43003041,7.06233725 C9.61817719,7.08198384 9.80819177,7.05081535 9.97973964,6.97217388 C10.1512875,6.89352152 10.2978981,6.77035363 10.4038731,6.61585231 C10.5098482,6.46136201 10.5711852,6.2813542 10.5813246,6.09512369 C10.5914752,5.90890414 10.550028,5.72345421 10.4614412,5.55866235 C10.3728656,5.39387047 10.2404746,5.2559374 10.0784547,5.15963932 C9.9164348,5.06333025 9.73088959,5.01229523 9.54169773,5.0119764 L9.50345247,5.0119764 C9.75830614,4.86353289 10.0444453,4.7750187 10.3396455,4.75331617 C10.6348458,4.73161365 10.9311467,4.77730549 11.2055343,4.88684057 C11.479922,4.99637565 11.7249586,5.16681852 11.9216328,5.38489921 C12.1183069,5.60297991 12.261282,5.8628275 12.3395514,6.14425671 C12.4178209,6.4256749 12.429161,6.72109966 12.3726825,7.00755319 C12.3163152,7.29399572 12.1935745,7.56377112 12.014133,7.79588035 C11.8348026,8.02794565 11.6035521,8.21616613 11.338281,8.34589755 C11.0731322,8.47551897 10.7811784,8.54313323 10.4851555,8.54346305 L10.4979076,8.5459917 Z" id="Shape"></path>
                <path d="M70.9045734,32 L78.3806647,32 L78.3806647,15.4975026 C78.3806647,11.2270407 75.9537953,8.25124871 70.6140625,8.25124871 C66.681918,8.25124871 63.9169127,10.0263017 62.5094345,11.6577215 L62.5094345,0 L55.0332326,0 L55.0332326,32 L62.5094345,32 L62.5094345,17.032364 C63.3835151,15.988286 64.8386182,14.7770373 67.0224903,14.7770373 C69.3992983,14.7770373 70.9045734,15.6881013 70.9045734,18.5176325 L70.9045734,32 Z" id="Shape"></path>
                <path d="M95.9062427,31.4359428 L103.39577,31.4359428 L103.39577,8.6779661 L95.9062427,8.6779661 L95.9062427,23.3781826 C95.0301687,24.4626433 93.5693794,25.5932306 91.4309731,25.5932306 C88.9988772,25.5932306 87.5379772,24.649838 87.5379772,21.9169669 L87.5379772,8.6779661 L80.0483384,8.6779661 L80.0483384,24.8857399 C80.0483384,29.0799342 82.4301539,32 87.7813864,32 C91.72211,32 94.4453422,30.3053554 95.9062427,28.7030717 L95.9062427,31.4359428 Z" id="Shape"></path>
                <path d="M165.869875,8.13732551 C162.188941,8.13732551 159.152005,10.2110295 157.801153,12.1898098 C156.832951,9.50356214 154.513896,8.13732551 151.180324,8.13732551 C147.49939,8.13732551 144.509872,10.1648039 143.49756,11.4823423 L143.49756,8.70385844 L139.881688,8.70385844 C138.81865,8.30739292 137.68614,8.11507271 136.548116,8.13732551 C132.867182,8.13732551 129.830246,10.2110295 128.478291,12.1898098 C127.511192,9.50356214 125.192137,8.13732551 121.857463,8.13732551 C118.176529,8.13732551 115.189216,10.1648039 114.174698,11.4823423 L114.174698,8.70385844 L106.731118,8.70385844 L106.731118,31.4576271 L114.174698,31.4576271 L114.174698,16.7600213 C114.947717,15.8168031 116.349294,14.5453828 118.328706,14.5453828 C120.600343,14.5453828 121.424087,15.8629212 121.424087,17.6059506 L121.424087,31.4474145 L128.865352,31.4474145 L128.865352,16.7600213 C129.587644,15.8168031 131.038845,14.5453828 133.072291,14.5453828 C134.854313,14.5453828 135.767378,15.3963647 136.056295,16.6318795 L136.056295,31.4576271 L143.557108,31.4576271 L143.557108,16.6908978 C144.346667,15.7553122 145.72178,14.5453828 147.653773,14.5453828 C149.92541,14.5453828 150.745846,15.8629212 150.745846,17.6059506 L150.745846,31.4474145 L158.189316,31.4474145 L158.189316,16.7600213 C158.912711,15.8168031 160.363913,14.5453828 162.396255,14.5453828 C164.618269,14.5453828 165.488328,15.8629212 165.488328,17.6059506 L165.488328,31.4474145 L172.882175,31.4474145 L172.882175,14.9684012 C172.877764,10.3058459 170.169444,8.13732551 165.869875,8.13732551 Z" id="Shape"></path>
                <path d="M180.944674,13.283612 C180.881788,13.3480466 180.804664,13.3999932 180.71686,13.4357785 C180.629057,13.4715639 180.534134,13.4905585 180.438025,13.4912931 C180.281402,13.4912931 180.130712,13.4361983 180.020365,13.3380771 C179.908831,13.2399559 179.847131,13.1069938 179.847131,12.9682598 C179.847131,12.8296308 179.908831,12.6965637 180.020365,12.5984425 C180.130712,12.5004262 180.281402,12.4453314 180.438025,12.4453314 C180.535321,12.446066 180.630243,12.4651656 180.718046,12.5014756 C180.804664,12.5377858 180.882975,12.590257 180.944674,12.6555312 L180.944674,13.283612 Z M180.944674,12.1200097 C180.842633,11.72721 180.096303,11.7671931 179.957478,11.7697117 L178.630933,11.7821999 L178.630933,11.6846033 C178.626187,11.6495525 178.629747,11.6139771 178.642798,11.5803954 C178.654664,11.5468139 178.674835,11.5158558 178.700938,11.4896202 C178.728229,11.4633846 178.761452,11.442501 178.797048,11.4282289 C178.83383,11.4139567 178.872986,11.4067157 178.913328,11.4069256 C178.990453,11.4059811 179.066391,11.4232965 179.134023,11.4569831 L179.287086,10.9565124 C179.11148,10.8800093 178.916888,10.8430696 178.721109,10.8489463 C178.595337,10.8421251 178.469564,10.858811 178.352098,10.8976396 C178.234631,10.9365733 178.126656,10.9968103 178.037666,11.0746776 C177.94749,11.15244 177.876297,11.2460487 177.830023,11.3494171 C177.783748,11.4526805 177.76239,11.5634997 177.767136,11.6746338 L177.767136,11.7821999 L177.329305,11.7821999 L177.329305,12.4352569 L177.767136,12.4352569 L177.767136,14.1318621 L178.616695,14.1318621 L178.616695,12.4352569 L179.062831,12.4352569 C179.012997,12.608517 178.989266,12.7869192 178.992826,12.9657412 C178.992826,13.7590014 179.516087,14.1543197 180.163935,14.1543197 C180.315811,14.1540049 180.465315,14.1231518 180.601766,14.0642791 C180.738218,14.0053014 180.856871,13.9197733 180.950607,13.8139913 L180.950607,13.9941775 C180.951794,14.0729893 180.933996,14.1510665 180.8984,14.2234768 C180.86399,14.2957822 180.811783,14.3608465 180.746524,14.4143672 C180.681264,14.4679928 180.604139,14.5087105 180.519895,14.5342115 C180.435652,14.5597125 180.345475,14.5691574 180.257671,14.5622312 C180.108168,14.5688426 179.959851,14.5482738 179.821027,14.5017843 C179.681016,14.4552948 179.554056,14.383829 179.448455,14.2920043 L179.062831,14.8349767 C179.393875,15.0753999 179.812721,15.1999666 180.239873,15.1852747 C180.901959,15.1852747 181.776435,14.9525123 181.776435,13.9941775 L181.776435,11.8523015 L180.928063,11.8523015 L180.944674,12.1200097 Z" id="Shape"></path>
                <path d="M179.552232,16.2595821 C178.89574,16.2579808 178.254488,16.0665121 177.710538,15.7095384 C177.165415,15.3525647 176.74104,14.8459847 176.490166,14.2538499 C176.240465,13.6617151 176.175988,13.0104469 176.304942,12.3825118 C176.433895,11.7545768 176.751591,11.1781117 177.215824,10.7257469 C177.680057,10.2734964 178.272073,9.96570522 178.916842,9.84137633 C179.560438,9.71704748 180.227481,9.78167105 180.833563,10.0271262 C181.439646,10.2725813 181.957806,10.6878877 182.322394,11.220546 C182.686981,11.7530898 182.881584,12.3791948 182.881584,13.0195972 C182.881584,13.8786901 182.531064,14.7023259 181.908569,15.3097874 C181.286074,15.9172488 180.442013,16.2587815 179.56161,16.2595821 L179.552232,16.2595821 Z M182.703393,9.95426739 C181.976563,9.24306517 181.01996,8.79962175 179.995364,8.69954099 C178.97194,8.59957467 177.943827,8.849033 177.08687,9.40559626 C176.231086,9.96227384 175.599213,10.7913998 175.299102,11.7518317 C174.998991,12.7122635 175.049401,13.7445247 175.442123,14.6725877 C175.834847,15.6006506 176.545264,16.3672118 177.45263,16.8414229 C178.358823,17.315634 179.406866,17.4683285 180.416222,17.2733141 C181.425579,17.0782996 182.335289,16.5478146 182.988264,15.7721032 C183.641239,14.9965061 183.998793,14.0237214 183.999965,13.0195972 C184.002309,12.4502236 183.887423,11.885997 183.664685,11.3598583 C183.441947,10.8336053 183.113701,10.3558485 182.699877,9.95426739 L182.703393,9.95426739 Z" id="Shape"></path>
            </g>
        </g>
    </g>
</svg>