<svg width="70" height="73" viewBox="0 0 70 73" fill="none" xmlns="http://www.w3.org/2000/svg">
<path d="M65.0857 33.0549C63.4926 33.0549 62.1714 34.376 62.1714 35.9691V64.9178C62.1714 66.1612 61.1611 67.1714 59.9177 67.1714H8.08229C6.83886 67.1714 5.82857 66.1612 5.82857 64.9178V13.0823C5.82857 11.8389 6.83886 10.8286 8.08229 10.8286H38.2743C39.8674 10.8286 41.1886 9.50743 41.1886 7.91429C41.1886 6.32114 39.8674 5 38.2743 5H8.08229C3.61372 5 0 8.61372 0 13.0823V64.9178C0 69.3863 3.61372 73 8.08229 73H59.9177C64.3863 73 68 69.3863 68 64.9178V35.9691C68 34.3371 66.6789 33.0549 65.0857 33.0549Z" fill="#333333"/>
<path d="M69.1572 8.80886L61.3039 0.848696C60.1929 -0.282899 58.3541 -0.282899 57.2431 0.848696L25.3317 33.3528C24.9486 33.743 24.6805 34.2112 24.5655 34.7575L22.0755 45.3711C21.8456 46.3466 22.1521 47.4002 22.8416 48.1415C23.378 48.6878 24.1058 49 24.872 49C25.1019 49 25.3317 48.961 25.5616 48.922L35.905 46.3076C36.403 46.1905 36.8627 45.9174 37.2458 45.5272L69.1572 13.0231C69.6935 12.4768 70 11.7354 70 10.955C70 10.0965 69.6935 9.35514 69.1572 8.80886ZM33.7214 40.7277L28.7412 41.9763L29.9288 36.8646L59.2352 7.01395L62.9895 10.8379L33.7214 40.7277Z" fill="#333333"/>
</svg>
