<svg width="43" height="35" viewBox="0 0 43 35" fill="none" xmlns="http://www.w3.org/2000/svg">
<path d="M9.32234 16.686H2.83641C1.26693 16.686 0 17.9255 0 19.4609V32.2252C0 33.7606 1.26693 35 2.83641 35H9.32234C10.8918 35 12.1588 33.7606 12.1588 32.2252V19.4609C12.1588 17.9255 10.8918 16.686 9.32234 16.686ZM9.32234 32.2437H2.8175V19.4794H9.30343L9.32234 32.2437Z" fill="white"/>
<path d="M38.5374 0H8.71724C6.25901 0 4.25462 1.96089 4.25462 4.36575V12.5423C4.25462 13.3007 4.89754 13.9297 5.67282 13.9297C6.44811 13.9297 7.09103 13.3007 7.09103 12.5423V4.38425C7.09103 3.4963 7.8285 2.79334 8.71724 2.79334H38.5374C39.445 2.79334 40.1636 3.5148 40.1636 4.38425V23.6047C40.1636 24.4926 39.4261 25.2141 38.5374 25.2141H17.0563C16.281 25.2141 15.6381 25.843 15.6381 26.6015C15.6381 27.36 16.281 27.9889 17.0563 27.9889H22.1996V32.1142H17.7938C17.0185 32.1142 16.3755 32.7431 16.3755 33.5016C16.3755 34.2601 17.0185 34.889 17.7938 34.889H29.442C30.2172 34.889 30.8602 34.2601 30.8602 33.5016C30.8602 32.7431 30.2172 32.1142 29.442 32.1142H25.0361V27.9889H38.5374C40.9956 27.9889 43 26.028 43 23.6047V4.38425C43 1.96089 40.9956 0 38.5374 0Z" fill="white"/>
</svg>
