<?xml version="1.0" encoding="UTF-8"?>
<svg width="320px" height="200px" viewBox="0 0 320 200" version="1.1" xmlns="http://www.w3.org/2000/svg" xmlns:xlink="http://www.w3.org/1999/xlink">
    <!-- Generator: Sketch 48.2 (47327) - http://www.bohemiancoding.com/sketch -->
    <title>calendar</title>
    <desc>Created with Sketch.</desc>
    <defs></defs>
    <g id="Page-1" stroke="none" stroke-width="1" fill="none" fill-rule="evenodd">
        <g id="calendar" transform="translate(78.000000, 17.000000)">
            <path d="M158.634378,57.6258877 L6.35921482,57.6258877 L6.35921482,145.979516 C6.36804015,152.979019 12.0599772,158.651044 19.0840517,158.659839 L145.912745,158.659839 C152.935568,158.649286 158.625557,152.977774 158.634378,145.979516 L158.634378,57.6258877 Z M6.35921482,51.2889188 L158.634378,51.2889188 L158.634378,32.2652423 C158.627314,25.2667743 152.935781,19.595151 145.912745,19.588112 L134.181034,19.588112 L134.181034,25.9282734 C134.173974,31.613211 129.551004,36.2200092 123.846109,36.2270451 C118.140694,36.2200132 113.516805,31.6137274 113.50798,25.9282734 L113.50798,19.5944969 L51.4792055,19.5944969 L51.4792055,25.9346582 C51.3799491,31.5527107 46.7813265,36.0552781 41.1426782,36.0552781 C35.5040299,36.0552781 30.9054074,31.5527107 30.806151,25.9346582 L30.806151,19.5944969 L19.0840517,19.5944969 C12.0629926,19.6015248 6.3715723,25.2687516 6.35921482,32.2652423 L6.35921482,51.2889188 Z M37.1717731,13.2543355 L37.1717731,25.9346582 C37.1717731,28.1227015 38.9517593,29.896461 41.1474837,29.896461 C43.343208,29.896461 45.1231943,28.1227015 45.1231943,25.9346582 L45.1231943,10.4833083 C45.1231943,8.29526508 43.343208,6.52150558 41.1474837,6.52150558 C38.9517593,6.52150558 37.1717731,8.29526508 37.1717731,10.4833083 L37.1717731,13.2543355 Z M119.870398,13.2543355 L119.870398,25.9346582 C119.931499,28.0797903 121.694181,29.7871571 123.847711,29.7871571 C126.00124,29.7871571 127.763923,28.0797903 127.825023,25.9346582 L127.825023,10.4833083 C127.866119,9.04050122 127.117164,7.68941585 125.869672,6.95593072 C124.622179,6.22244559 123.073243,6.22244559 121.82575,6.95593072 C120.578257,7.68941585 119.829302,9.04050122 119.870398,10.4833083 L119.870398,13.2543355 Z M165,32.2652423 L165,57.6258877 L165,145.979516 C164.989408,156.478618 156.451905,164.987682 145.915948,165 L19.0840517,165 C8.54861291,164.989442 0.0105954879,156.481292 0,145.982708 L0,32.2652423 C0.00883240474,21.76593 8.54788166,13.2567522 19.0840517,13.2479507 L30.8093546,13.2479507 L30.8093546,10.4833083 C30.8093546,4.79369065 35.4378927,0.181344223 41.1474837,0.181344223 C46.8570747,0.181344223 51.4856128,4.79369065 51.4856128,10.4833083 L51.4856128,13.2543355 L113.511184,13.2543355 L113.511184,10.4833083 C113.445404,6.76011963 115.401022,3.29135451 118.6262,1.4105805 C121.851377,-0.470193501 125.844045,-0.470193501 129.069222,1.4105805 C132.294399,3.29135451 134.250017,6.76011963 134.184238,10.4833083 L134.184238,13.2543355 L145.915948,13.2543355 C156.448889,13.2648873 164.985874,21.7691522 165,32.2652423 Z" id="Shape" fill="#FF6C00" fill-rule="nonzero"></path>
            <path d="M141.999893,84.1150304 C142.016794,87.4177226 140.025811,90.404551 136.957126,91.6800794 C133.888442,92.9556078 130.347824,92.268042 127.989439,89.9386105 C125.631053,87.609179 124.920454,84.0977203 126.189631,81.0447764 C127.458808,77.9918324 130.45722,76.0000657 133.78402,76.000023 C138.309637,75.9894471 141.987497,79.6221541 141.999893,84.1150304 Z M109.142821,132.801888 C109.159722,136.10487 107.168393,139.091901 104.099313,140.367244 C101.030233,141.642586 97.4893618,140.954436 95.131228,138.624343 C92.7730942,136.294249 92.0632879,132.782266 93.3334775,129.729423 C94.6036671,126.676581 97.6030662,124.685632 100.930158,124.68688 C103.103184,124.681802 105.18924,125.533922 106.729415,127.055783 C108.269589,128.577643 109.137718,130.64458 109.142821,132.801888 Z M109.142821,108.460053 C109.159722,111.763035 107.168393,114.750066 104.099313,116.025409 C101.030233,117.300751 97.4893618,116.612601 95.131228,114.282508 C92.7730942,111.952414 92.0632879,108.440431 93.3334775,105.387588 C94.6036671,102.334746 97.6030662,100.343797 100.930158,100.345045 C103.103184,100.339967 105.18924,101.192087 106.729415,102.713948 C108.269589,104.235808 109.137718,106.302745 109.142821,108.460053 Z M109.142821,84.1150304 C109.159722,87.4180126 107.168393,90.4050441 104.099313,91.6803867 C101.030233,92.9557293 97.4893618,92.2675792 95.131228,89.9374856 C92.7730942,87.607392 92.0632879,84.0954087 93.3334775,81.042566 C94.6036671,77.9897234 97.6030662,75.9987749 100.930158,76.000023 C103.103184,75.994945 105.18924,76.8470652 106.729415,78.3689256 C108.269589,79.890786 109.137718,81.9577228 109.142821,84.1150304 Z M43.4318857,132.801888 C43.4487862,136.10458 41.4578038,139.091408 38.389119,140.366936 C35.3204341,141.642465 31.7798166,140.954899 29.4214312,138.625468 C27.0630459,136.296036 26.3524469,132.784577 27.6216236,129.731633 C28.8908004,126.678689 31.8892127,124.686923 35.2160123,124.68688 C39.7416295,124.676304 43.4194896,128.309011 43.4318857,132.801888 Z M43.4318857,108.460053 C43.4487862,111.762745 41.4578038,114.749573 38.389119,116.025102 C35.3204341,117.30063 31.7798166,116.613064 29.4214312,114.283633 C27.0630459,111.954201 26.3524469,108.442743 27.6216236,105.389799 C28.8908004,102.336855 31.8892127,100.345088 35.2160123,100.345045 C39.7416295,100.334469 43.4194896,103.967176 43.4318857,108.460053 Z M43.4318857,84.1150304 C43.4487862,87.4177226 41.4578038,90.404551 38.389119,91.6800794 C35.3204341,92.9556078 31.7798166,92.268042 29.4214312,89.9386105 C27.0630459,87.609179 26.3524469,84.0977203 27.6216236,81.0447764 C28.8908004,77.9918324 31.8892127,76.0000657 35.2160123,76.000023 C39.7416295,75.9894471 43.4194896,79.6221541 43.4318857,84.1150304 Z M76.2857478,132.801888 C76.301347,136.103008 74.3103164,139.0877 71.2427225,140.361729 C68.1751285,141.635758 64.6364153,140.947673 62.2796151,138.618897 C59.9228148,136.290121 59.2130839,132.78028 60.4819576,129.728918 C61.7508313,126.677557 64.7478748,124.686916 68.073085,124.68688 C72.5974497,124.678066 76.2733513,128.310258 76.2857478,132.801888 Z M76.2857478,108.460053 C76.301347,111.761173 74.3103164,114.745865 71.2427225,116.019894 C68.1751285,117.293923 64.6364153,116.605838 62.2796151,114.277062 C59.9228148,111.948286 59.2130839,108.438445 60.4819576,105.387084 C61.7508313,102.335722 64.7478748,100.345082 68.073085,100.345045 C70.2461114,100.339967 72.3321676,101.192087 73.872342,102.713948 C75.4125164,104.235808 76.2806449,106.302745 76.2857478,108.460053 Z M76.2857478,84.1150304 C76.301347,87.416151 74.3103164,90.4008425 71.2427225,91.6748717 C68.1751285,92.9489009 64.6364153,92.2608156 62.2796151,89.9320397 C59.9228148,87.6032638 59.2130839,84.0934226 60.4819576,81.0420614 C61.7508313,77.9907002 64.7478748,76.0000594 68.073085,76.000023 C72.5974497,75.9912094 76.2733513,79.6234014 76.2857478,84.1150304 Z" id="Shape" stroke="#FF6C00" stroke-width="5"></path>
            <path d="M142,108 C142,112.418278 138.19442,116 133.5,116 C128.80558,116 125,112.418278 125,108 C125,103.581722 128.80558,100 133.5,100 C138.193666,100.001715 141.998178,103.582432 142,108" id="Shape" fill="#FF6C00" fill-rule="nonzero"></path>
            <ellipse id="Oval" stroke="#FF6C00" cx="133.5" cy="108" rx="8.5" ry="8"></ellipse>
            <path d="M141.999999,133.5 C141.999999,138.194421 138.418277,142 134,142 C129.581722,142 126,138.194421 126,133.5 C126,128.80558 129.581722,125.000001 134,125.000001 C136.121996,124.999083 138.157329,125.894321 139.657808,127.488579 C141.158286,129.082838 142.000863,131.245379 141.999999,133.5 Z" id="Shape" stroke="#FF6C00" stroke-width="5"></path>
        </g>
    </g>
</svg>