<svg id="Layer_1" data-name="Layer 1" xmlns="http://www.w3.org/2000/svg" xmlns:xlink="http://www.w3.org/1999/xlink" viewBox="0 0 598.77 598.77"><defs><style>.cls-1,.cls-4,.cls-5{fill:none;}.cls-2{clip-path:url(#clip-path);}.cls-3{fill:#f36d21;}.cls-4,.cls-5{stroke:#f36d21;stroke-miterlimit:10;}.cls-5{stroke-width:5px;}</style><clipPath id="clip-path"><rect class="cls-1" x="41.47" y="35.75" width="522.54" height="523.78"/></clipPath></defs><title>Humm More info icons</title><g class="cls-2"><path class="cls-3" d="M540.39,219.44H65.07V496.2a39.77,39.77,0,0,0,39.72,39.72H500.68a39.77,39.77,0,0,0,39.71-39.72ZM65.07,199.59H540.39V140a39.75,39.75,0,0,0-39.71-39.71H464.06v19.86a32.3,32.3,0,0,1-32.26,32.26h0a32.31,32.31,0,0,1-32.27-32.26V100.31H205.91v19.86a32.27,32.27,0,0,1-64.53,0V100.31H104.79A39.76,39.76,0,0,0,65.07,140ZM161.25,80.45v39.72a12.41,12.41,0,0,0,24.82,0V71.77a12.41,12.41,0,1,0-24.82,0v8.68Zm258.14,0v39.72a12.42,12.42,0,0,0,24.83,0V71.77a12.42,12.42,0,1,0-24.83,0ZM560.26,140v79.44h0V496.2a59.64,59.64,0,0,1-59.57,59.58H104.79a59.63,59.63,0,0,1-59.57-59.57V140a59.62,59.62,0,0,1,59.57-59.57h36.6V71.77a32.27,32.27,0,0,1,64.54,0v8.68H399.54V71.77a32.27,32.27,0,1,1,64.53,0v8.68h36.62A59.63,59.63,0,0,1,560.26,140"/><path class="cls-4" d="M540.39,219.44H65.07V496.2a39.77,39.77,0,0,0,39.72,39.72H500.68a39.77,39.77,0,0,0,39.71-39.72ZM65.07,199.59H540.39V140a39.75,39.75,0,0,0-39.71-39.71H464.06v19.86a32.3,32.3,0,0,1-32.26,32.26h0a32.31,32.31,0,0,1-32.27-32.26V100.31H205.91v19.86a32.27,32.27,0,0,1-64.53,0V100.31H104.79A39.76,39.76,0,0,0,65.07,140ZM161.25,80.45v39.72a12.41,12.41,0,0,0,24.82,0V71.77a12.41,12.41,0,1,0-24.82,0v8.68Zm258.14,0v39.72a12.42,12.42,0,0,0,24.83,0V71.77a12.42,12.42,0,1,0-24.83,0ZM560.26,140v79.44h0V496.2a59.64,59.64,0,0,1-59.57,59.58H104.79a59.63,59.63,0,0,1-59.57-59.57V140a59.62,59.62,0,0,1,59.57-59.57h36.6V71.77a32.27,32.27,0,0,1,64.54,0v8.68H399.54V71.77a32.27,32.27,0,1,1,64.53,0v8.68h36.62A59.63,59.63,0,0,1,560.26,140Z"/><path class="cls-5" d="M485.13,300.16a25.59,25.59,0,1,1-25.59-25.46A25.53,25.53,0,0,1,485.13,300.16ZM382.79,452.91a25.59,25.59,0,1,1-25.58-25.46A25.52,25.52,0,0,1,382.79,452.91Zm0-76.37a25.59,25.59,0,1,1-25.58-25.46A25.52,25.52,0,0,1,382.79,376.54Zm0-76.38a25.59,25.59,0,1,1-25.58-25.46A25.52,25.52,0,0,1,382.79,300.16ZM178.12,452.91a25.59,25.59,0,1,1-25.59-25.46A25.53,25.53,0,0,1,178.12,452.91Zm0-76.37a25.59,25.59,0,1,1-25.59-25.46A25.53,25.53,0,0,1,178.12,376.54Zm0-76.38a25.59,25.59,0,1,1-25.59-25.46A25.53,25.53,0,0,1,178.12,300.16ZM280.45,452.91a25.58,25.58,0,1,1-25.58-25.46A25.53,25.53,0,0,1,280.45,452.91Zm0-76.37a25.58,25.58,0,1,1-25.58-25.46A25.52,25.52,0,0,1,280.45,376.54Zm0-76.38a25.58,25.58,0,1,1-25.58-25.46A25.53,25.53,0,0,1,280.45,300.16Z"/><path class="cls-3" d="M486.3,376.53a25.75,25.75,0,1,1-25.75-25.75,25.76,25.76,0,0,1,25.75,25.75"/><circle class="cls-4" cx="460.55" cy="376.53" r="25.75"/><path class="cls-5" d="M485.13,453.79a24.58,24.58,0,1,1-24.58-24.58A24.57,24.57,0,0,1,485.13,453.79Z"/></g></svg>