<?xml version="1.0" encoding="UTF-8"?>
<svg width="320px" height="200px" viewBox="0 0 320 200" version="1.1" xmlns="http://www.w3.org/2000/svg" xmlns:xlink="http://www.w3.org/1999/xlink">
    <!-- Generator: Sketch 48.2 (47327) - http://www.bohemiancoding.com/sketch -->
    <title>Shape-path</title>
    <desc>Created with Sketch.</desc>
    <defs></defs>
    <g id="Page-1" stroke="none" stroke-width="1" fill="none" fill-rule="evenodd">
        <g id="icon-rocket" transform="translate(59.000000, 5.000000)">
            <path d="M74.9647525,144.444632 L66.6229703,136.077474 L66.32,136.360421 L50.1615842,152.528842 L74.9647525,144.444632 Z M88.739802,156.975158 L54.9081188,190.989474 L88.739802,156.975158 Z M0.00990099,159.663158 L45.1120792,114.492632 L53.5346535,122.859789 L0.00990099,159.663158 Z M147.899802,104.670316 C147.899802,104.670316 151.636436,127.770947 117.158416,164.089263 C116.457989,164.825776 115.414525,165.126138 114.430046,164.874626 C113.445567,164.623114 112.673721,163.858982 112.411881,162.876632 C109.401417,151.04496 103.269715,140.239782 94.6578218,131.590737 L71.0867327,107.924211 C62.4738373,99.2957867 51.7036582,93.1395821 39.9009901,90.0985263 C38.9279667,89.8189143 38.1764263,89.0434622 37.9269835,88.061713 C37.6775407,87.0799637 37.9676957,86.0395099 38.6891089,85.3288421 C74.8839604,50.7284211 97.970297,54.5684211 97.970297,54.5684211 L125.27802,27.1225263 C137.326973,15.0093211 152.841252,6.94368085 169.673267,4.04210526 L191.123564,0.363789474 C194.090782,-0.13980093 197.117667,0.829176635 199.241753,2.96261416 C201.36584,5.09605169 202.322789,8.1284457 201.808317,11.0955789 L198.132277,32.64 C195.254552,49.5137601 187.224937,65.0816535 175.146931,77.2042105 L147.899802,104.670316 Z" id="Shape" stroke="#FF6900" stroke-width="6.06" stroke-linecap="round" stroke-linejoin="round"></path>
            <polygon id="Shape-path" stroke="#FFFFFF" stroke-width="6.06" fill="#FFFFFF" stroke-linecap="round" stroke-linejoin="round" points="74.9500008 152.967164 66.6092844 144.600006 66.3063528 144.882953 50.1500015 161.051374"></polygon>
            <polygon id="Shape-path" stroke="#FFFFFF" stroke-width="6.06" fill="#FFFFFF" stroke-linecap="round" stroke-linejoin="round" points="0.0299987793 168.220529 45.1281727 123.050003 53.5499992 131.41716"></polygon>
            <path d="M159.917624,53.5174737 C159.917614,59.7097314 154.902868,64.7305832 148.714443,64.7342956 C142.526019,64.7380079 137.50526,59.7231764 137.49783,53.5309231 C137.4904,47.3386698 142.499109,42.3117888 148.687525,42.3006316 C154.881858,42.3006216 159.906483,47.319315 159.917624,53.5174737" id="Shape" fill="#FF6900" fill-rule="nonzero"></path>
        </g>
    </g>
</svg>