<svg id="Layer_1" data-name="Layer 1" xmlns="http://www.w3.org/2000/svg" xmlns:xlink="http://www.w3.org/1999/xlink" viewBox="0 0 595.28 595.28"><defs><style>.cls-1{fill:none;}.cls-2{clip-path:url(#clip-path);}.cls-3{fill:#f36d21;}</style><clipPath id="clip-path"><rect class="cls-1" x="29.74" y="25.31" width="551.88" height="544.66"/></clipPath></defs><title>Humm More info icons</title><g class="cls-2"><path class="cls-3" d="M551.48,138.92a105.23,105.23,0,0,1-56.29-28.62,102.19,102.19,0,0,1-29.1-55.36,271.31,271.31,0,0,1,93.5-8,258.42,258.42,0,0,1-8.11,91.94m-68.4,116.25L293.48,441.63l-135.21-133,189.6-186.45A267.31,267.31,0,0,1,446,61.13a122.78,122.78,0,0,0,34.41,63.73,126.08,126.08,0,0,0,64.79,33.83,261.58,261.58,0,0,1-62.1,96.48M394.83,431.25l-80.5,79.16-9.56-50.77,99.11-97.47ZM241,455.29l-96.61-95,23.85-12.69,85.68,84.24ZM140,297.56l-51.62-9.41L168.82,209l70.25-8.91ZM579.49,36.36a10.37,10.37,0,0,0-9.11-8.94A292,292,0,0,0,442.3,40.56a288.38,288.38,0,0,0-109.23,67.09l-69.77,68.6L162.61,189a10.56,10.56,0,0,0-6.07,2.92L59.45,287.43a10.21,10.21,0,0,0-2.59,10.34A10.39,10.39,0,0,0,65,304.83l73.41,13.38,14.43,14.18-30.71,16.36a10.29,10.29,0,0,0-5.38,7.57,10.14,10.14,0,0,0,3,8.75L236.11,479.6a10.59,10.59,0,0,0,7.41,3,10.9,10.9,0,0,0,1.5-.1,10.47,10.47,0,0,0,7.7-5.29L269.35,447l14.43,14.19,13.59,72.2a10.37,10.37,0,0,0,7.19,8,10.7,10.7,0,0,0,3.11.46,10.56,10.56,0,0,0,7.4-3l97.09-95.48a10.25,10.25,0,0,0,3-6l13-99,69.76-68.6a282.29,282.29,0,0,0,68.22-107.41,278.61,278.61,0,0,0,13.38-126"/><path class="cls-3" d="M412.67,250.66a43.13,43.13,0,0,1-60.2,0,41.41,41.41,0,0,1,0-59.2,43.09,43.09,0,0,1,60.19,0,41.42,41.42,0,0,1,0,59.2m-75-73.76a61.79,61.79,0,0,0,0,88.32,64.35,64.35,0,0,0,89.81,0,61.79,61.79,0,0,0,0-88.32,64.34,64.34,0,0,0-89.81,0"/><path class="cls-3" d="M166,435.93a10.59,10.59,0,0,0-14.8,0L61.43,524.25a10.16,10.16,0,0,0,0,14.55,10.58,10.58,0,0,0,14.8,0L166,450.49a10.17,10.17,0,0,0,0-14.56"/><path class="cls-3" d="M179.86,464.08l-40.47,39.79a10.16,10.16,0,0,0,0,14.55,10.59,10.59,0,0,0,14.81,0l40.47-39.78a10.17,10.17,0,0,0,0-14.56,10.6,10.6,0,0,0-14.81,0"/><path class="cls-3" d="M125.23,522.06a10.58,10.58,0,0,0-9.86,6.83,10.29,10.29,0,0,0,3.38,11.55,10.68,10.68,0,0,0,12.45.36,10.27,10.27,0,0,0,3.69-12.38,10.54,10.54,0,0,0-9.66-6.36"/><path class="cls-3" d="M134.89,528.42c.27.62-.25-.62,0,0"/><path class="cls-3" d="M95.62,546.91l-5.57,5.49A10.17,10.17,0,0,0,90,567a10.59,10.59,0,0,0,14.81,0l5.57-5.47a10.16,10.16,0,0,0,0-14.56,10.6,10.6,0,0,0-14.8,0"/><path class="cls-3" d="M88.08,456.31a10.6,10.6,0,0,0-14.81,0L32.81,496.1a10.16,10.16,0,0,0,0,14.56,10.6,10.6,0,0,0,14.8,0l40.47-39.79a10.19,10.19,0,0,0,0-14.56"/><path class="cls-3" d="M104.78,452.36a10.45,10.45,0,0,0,7.88-9,10.33,10.33,0,0,0-5.72-10.19,10.64,10.64,0,0,0-12.24,2.05,10.26,10.26,0,0,0-1.18,12.81c-.09-.13-.16-.21,0,0s.11.16,0,0a10.66,10.66,0,0,0,11.21,4.22"/><path class="cls-3" d="M131.85,427.82l5.57-5.48a10.17,10.17,0,0,0,0-14.56,10.58,10.58,0,0,0-14.8,0l-5.57,5.47a10.17,10.17,0,0,0,0,14.56,10.58,10.58,0,0,0,14.8,0"/></g></svg>