<?xml version="1.0" encoding="UTF-8"?>
<svg width="320px" height="200px" viewBox="0 0 320 200" version="1.1" xmlns="http://www.w3.org/2000/svg" xmlns:xlink="http://www.w3.org/1999/xlink">
    <!-- Generator: Sketch 48.2 (47327) - http://www.bohemiancoding.com/sketch -->
    <title>click</title>
    <desc>Created with Sketch.</desc>
    <defs></defs>
    <g id="Page-1" stroke="none" stroke-width="1" fill="none" fill-rule="evenodd">
        <g id="click" transform="translate(4.000000, 43.000000)">
            <g id="Group">
                <g id="humm-logo" transform="translate(66.000000, 30.000000)" fill="#FF6C00" fill-rule="nonzero">
                    <path d="M64.2786367,21.0491054 C64.2786367,18.0388276 62.6852559,17.0658546 60.1616356,17.0658546 C57.8452468,17.0658546 56.3025227,18.3403121 55.3768882,19.4640274 L55.3768882,35.3878949 L47.4514309,35.3878949 L47.4514309,1.34754473 L55.3768882,1.34754473 L55.3768882,13.7495242 C56.8689557,12.0137038 59.8024341,10.1271412 63.9700918,10.1271412 C69.6298171,10.1271412 72.204094,13.2927293 72.204094,17.8332699 L72.204094,35.3924629 L64.2786367,35.3924629 L64.2786367,21.0491054 Z M90.8134916,35.3878949 L98.7389489,35.3878949 L98.7389489,10.7392463 L90.8134916,10.7392463 L90.8134916,26.6631138 C89.8878571,27.8370765 88.345133,29.0612866 86.0794008,29.0612866 C83.5051239,29.0612866 81.9623997,28.0380662 81.9623997,25.0780358 L81.9623997,10.7346783 L74.0369424,10.7346783 L74.0369424,28.2938713 C74.0369424,32.8344119 76.5605627,36 82.2202879,36 C86.3879456,36 89.2707674,34.1636848 90.8134916,32.4278645 L90.8134916,35.3878949 Z M163.828091,10.1225733 C159.918322,10.1225733 156.676299,12.3700038 155.234888,14.5123715 C154.20794,11.6025885 151.734976,10.1225733 148.184408,10.1225733 C144.445029,10.1225733 141.368791,12.1279026 140.162243,13.5531024 C140.111586,13.4434716 140.056324,13.3338409 140.001063,13.2287781 L140.001063,13.1374191 L139.950406,13.1374191 C138.748463,10.9767796 136.468915,9.93985535 133.438729,9.93985535 C132.490069,9.93985535 131.57825,10.0723258 130.726297,10.3052912 C127.673085,10.8717168 125.213937,12.7217358 124.011994,14.5123715 C122.985046,11.6025885 120.512082,10.1225733 116.961514,10.1225733 C113.051745,10.1225733 109.860378,12.3151884 108.778169,13.7449562 L108.778169,10.7346783 L100.852711,10.7346783 L100.852711,35.3878949 L108.778169,35.3878949 L108.778169,19.4640274 C109.60249,18.445375 111.094557,17.0658546 113.203714,17.0658546 C115.621416,17.0658546 116.496394,18.4956224 116.496394,20.382185 L116.496394,35.3878949 L124.421852,35.3878949 L124.421852,19.4640274 C125.195516,18.445375 126.73824,17.0658546 128.898054,17.0658546 C130.79998,17.0658546 131.767061,17.9885801 132.075605,19.326989 L132.075605,35.3878949 L132.190734,35.3878949 L140.001063,35.3878949 L140.065535,35.3878949 L140.065535,19.3909402 C140.899066,18.3768557 142.368108,17.0658546 144.426609,17.0658546 C146.844311,17.0658546 147.719288,18.4956224 147.719288,20.382185 L147.719288,35.3878949 L155.644746,35.3878949 L155.644746,19.4640274 C156.41841,18.445375 157.961135,17.0658546 160.120948,17.0658546 C162.487994,17.0658546 163.413628,18.4956224 163.413628,20.382185 L163.413628,35.3878949 L171.288429,35.3878949 L171.288429,17.5272174 C171.288429,12.4704987 168.405607,10.1225733 163.828091,10.1225733 Z M182,15.1975638 C182,16.3669585 181.539485,17.467834 180.705954,18.2992006 C179.872422,19.1259992 178.762582,19.5827941 177.579059,19.5827941 C176.400142,19.5827941 175.290301,19.1259992 174.452165,18.2992006 C173.618633,17.472402 173.158118,16.3715265 173.158118,15.1975638 C173.158118,14.028169 173.618633,12.9272935 174.452165,12.0959269 C175.285696,11.2691283 176.395537,10.8123335 177.574454,10.8123335 L177.579059,10.8123335 C178.757977,10.8123335 179.867817,11.2691283 180.701349,12.0959269 C181.539485,12.9272935 182,14.028169 182,15.1975638 Z M180.885555,15.1975638 C180.885555,13.3886563 179.402697,11.9223449 177.583664,11.9223449 C175.760026,11.9223449 174.281774,13.3932242 174.281774,15.1975638 C174.281774,17.0064713 175.764631,18.4727826 177.583664,18.4727826 C179.402697,18.4773506 180.885555,17.0064713 180.885555,15.1975638 Z M179.674401,14.032737 L179.674401,16.3943662 C179.674401,17.4495622 178.813239,17.7099353 178.163913,17.7099353 C177.717214,17.7099353 177.344197,17.5957366 177.008021,17.3216597 L177.371828,16.7323944 C177.569849,16.9470879 177.864578,17.0338789 178.168518,17.0338789 C178.444827,17.0338789 178.85008,16.8877046 178.85008,16.4035021 L178.85008,16.2070803 C178.633638,16.4583175 178.37575,16.5816521 178.076415,16.5816521 C177.440905,16.5816521 176.925128,16.147697 176.925128,15.2752189 C176.925128,15.0513894 176.948154,14.8549676 176.994206,14.6905215 L176.575137,14.6905215 L176.575137,16.5633803 L175.741606,16.5633803 L175.741606,14.6905215 L175.308722,14.6905215 L175.308722,13.9733536 L175.741606,13.9733536 L175.741606,13.8454511 C175.741606,13.2927293 176.137648,12.9318614 176.67645,12.9318614 C176.902103,12.9318614 177.100124,12.9821089 177.229068,13.0506281 L177.077098,13.6124857 C177.012626,13.5759421 176.934339,13.5576703 176.860656,13.5576703 C176.685661,13.5576703 176.575137,13.6627332 176.575137,13.8637229 L176.575137,13.9687857 L177.878394,13.9550818 C178.021153,13.9505139 178.748766,13.9094024 178.85008,14.3433574 L178.85008,14.0373049 L179.674401,14.0373049 L179.674401,14.032737 Z M178.85008,14.9280548 C178.748766,14.7864484 178.527719,14.6996574 178.352724,14.6996574 C178.021153,14.6996574 177.781686,14.8960792 177.781686,15.2752189 C177.781686,15.6543586 178.025758,15.8553483 178.352724,15.8553483 C178.527719,15.8553483 178.748766,15.7639893 178.85008,15.6223829 L178.85008,14.9280548 Z M37.9510134,23.3559193 L37.9510134,35.3878949 L20.4192202,35.3878949 L20.4192202,35.383327 C20.3179069,35.383327 20.2165937,35.3878949 20.1152805,35.3878949 C10.2648718,35.3878949 2.27494244,27.4670727 2.27494244,17.6916635 C2.27494244,16.1751047 2.46835859,14.6996574 2.83216518,13.2972973 C3.15913059,11.3696231 1.59798588,8.2679863 0,6.23068139 C2.58348726,6.52759802 6.3597075,6.3266083 7.52020445,5.1617815 C10.7484122,1.97335364 15.1969839,0 20.1106753,0 C24.8079249,0 29.0768958,1.80433955 32.2590521,4.74609821 L32.5215455,5.1526456 L20.5297437,17.0521507 C20.2626452,17.3170917 20.2626452,17.7510468 20.5297437,18.0159878 C20.6632929,18.1484583 20.8382885,18.2169775 21.0178892,18.2169775 C21.1974899,18.2169775 21.3724855,18.1484583 21.5060348,18.0159878 L38.6648111,0.995812714 C44.3613775,7.42291587 44.126515,17.2120289 37.9510134,23.3559193 Z M12.6641532,10.8443091 C14.0503024,10.8443091 15.1739581,9.72972973 15.1739581,8.35477731 C15.1739581,6.9798249 14.0503024,5.86524553 12.6641532,5.86524553 C12.1944283,5.86524553 11.7615445,5.99314808 11.3839225,6.21697754 C11.4023431,6.21697754 11.4161585,6.21240959 11.4345791,6.21240959 C12.185218,6.21240959 12.7977025,6.81537876 12.7977025,7.56452227 C12.7977025,8.31366578 12.1898231,8.91663494 11.4345791,8.91663494 C10.8635409,8.91663494 10.3800005,8.56947088 10.1773741,8.07156452 C10.1773741,8.08983632 10.1727689,8.10810811 10.1727689,8.13094785 C10.1681638,8.19489912 10.1635586,8.25428245 10.1589535,8.31823373 C10.1635586,8.67910164 10.237241,9.0262657 10.3615799,9.34602208 C10.7392019,10.2230681 11.6279952,10.8443091 12.6641532,10.8443091 Z" id="Shape"></path>
                </g>
                <rect id="Rectangle-path" stroke="#FF6C00" stroke-width="6" stroke-linejoin="round" x="0.232340426" y="0.363436123" width="311.430213" height="96.1013216" rx="48.0506608"></rect>
                <path d="M271.191064,56.8281938 C271.191064,53.2268722 274.692766,49.8568282 278.194468,49.8568282 C281.999621,50.0035406 285.050486,53.040449 285.197872,56.8281938 L285.197872,82.9735683 L306.014468,89.6420705 C310.379149,91.0352423 311.369362,96.1784141 310.334894,100.627753 L306.208085,124.807269 L271.191064,124.807269 L252.841702,98.4361233 C250.833617,95.3799559 250.78383,89.6255507 255.198298,89.6255507 C259.612766,89.6255507 262.494894,90.3303965 271.32383,103.871145 L271.191064,56.8281938 Z" id="Shape" fill="#FFFFFF" fill-rule="nonzero"></path>
                <path d="M271.191064,56.8281938 C271.191064,53.2268722 274.692766,49.8568282 278.194468,49.8568282 C281.999621,50.0035406 285.050486,53.040449 285.197872,56.8281938 L285.197872,82.9735683 L306.014468,89.6420705 C310.379149,91.0352423 311.369362,96.1784141 310.334894,100.627753 L306.208085,124.807269 L271.191064,124.807269 L252.841702,98.4361233 C250.833617,95.3799559 250.78383,89.6255507 255.198298,89.6255507 C259.612766,89.6255507 262.494894,90.3303965 271.32383,103.871145 L271.191064,56.8281938 Z" id="Shape" stroke="#FF6C00" stroke-width="6" stroke-linejoin="round"></path>
            </g>
        </g>
    </g>
</svg>