<svg width="87" height="39" viewBox="0 0 87 39" fill="none" xmlns="http://www.w3.org/2000/svg">
    <path d="M71.2779 12.502C70.1617 12.502 69.2758 13.4259 69.2758 14.5453C69.2758 15.6824 70.1794 16.5886 71.2779 16.5886C72.3941 16.5886 73.28 15.6646 73.28 14.5453C73.28 13.4259 72.3764 12.502 71.2779 12.502ZM41.1757 0.224609C51.257 0.224609 54.2159 9.42822 64.2618 8.41547C66.2638 -0.788143 74.6266 2.25011 72.2878 8.41547C77.3019 13.5325 80.3139 16.6063 81.3238 16.6063C83.3259 16.6063 86.3379 18.6496 86.3379 21.7234C86.3379 24.7972 79.3217 24.7972 75.2998 24.7972C67.8407 27.2847 59.1591 30.1808 56.2357 31.9575C66.2638 32.9525 69.2758 33.983 69.2758 37.0568H35.1517C29.7656 37.0568 22.0053 29.701 20.4107 23.7667C18.6212 23.8733 15.1663 23.7311 15.0777 24.7972C15.1131 25.5434 17.1684 26.5384 18.1428 27.1603C19.1527 27.7999 20.2158 28.4573 21.1548 29.2924C22.0939 30.1275 23.1038 31.3001 23.1038 32.9703C23.1038 34.1252 22.6077 35.2623 21.8812 36.0085C19.4539 38.1406 15.8927 38.3716 13.1287 38.4605C8.68163 38.5848 3.7207 38.0696 2.03752 38.0696C0.974468 38.0873 0 37.1101 0 36.0263C0 34.9425 0.974468 33.9653 2.03752 33.983C4.37625 33.983 8.94739 34.4805 13.0047 34.3739C15.1131 34.1252 19.0287 34.4983 19.0819 33.0058C19.0641 31.922 17.0266 31.2824 16.0167 30.6427C15.0068 30.0031 13.9438 29.3102 13.0047 28.4751C12.0657 27.64 11.0558 26.4673 11.0558 24.7972C11.0558 23.6956 11.3747 22.5407 12.0834 21.7056C14.245 19.538 17.6822 19.6979 20.1804 19.6979C21.2611 7.58039 31.6614 0.224609 41.1757 0.224609Z" fill="white"/>
</svg>
