<svg width="49" height="40" viewBox="0 0 49 40" fill="none" xmlns="http://www.w3.org/2000/svg">
<path d="M10.6231 19.0698H3.23219C1.44371 19.0698 0 20.4862 0 22.241V36.8288C0 38.5835 1.44371 40 3.23219 40H10.6231C12.4116 40 13.8553 38.5835 13.8553 36.8288V22.241C13.8553 20.4862 12.4116 19.0698 10.6231 19.0698ZM10.6231 36.8499H3.21064V22.2621H10.6016L10.6231 36.8499Z" fill="rgb(255, 108, 0)"/>
<path d="M43.9147 0H9.9336C7.13237 0 4.84828 2.24102 4.84828 4.98943V14.334C4.84828 15.2009 5.58091 15.9197 6.46438 15.9197C7.34784 15.9197 8.08047 15.2009 8.08047 14.334V5.01057C8.08047 3.99577 8.92084 3.19239 9.9336 3.19239H43.9147C44.949 3.19239 45.7678 4.01692 45.7678 5.01057V26.9768C45.7678 27.9916 44.9274 28.8161 43.9147 28.8161H19.4362C18.5528 28.8161 17.8201 29.5349 17.8201 30.4017C17.8201 31.2685 18.5528 31.9873 19.4362 31.9873H25.2973V36.7019H20.2766C19.3931 36.7019 18.6605 37.4207 18.6605 38.2876C18.6605 39.1544 19.3931 39.8732 20.2766 39.8732H33.5501C34.4336 39.8732 35.1662 39.1544 35.1662 38.2876C35.1662 37.4207 34.4336 36.7019 33.5501 36.7019H28.5295V31.9873H43.9147C46.7159 31.9873 49 29.7463 49 26.9768V5.01057C49 2.24102 46.7159 0 43.9147 0Z" fill="rgb(255, 108, 0)"/>
</svg>
