<!-- Generator: Adobe Illustrator 23.0.2, SVG Export Plug-In  -->
<svg version="1.1" xmlns="http://www.w3.org/2000/svg" xmlns:xlink="http://www.w3.org/1999/xlink" x="0px" y="0px"
	 width="395.21px" height="78.82px" viewBox="0 0 395.21 78.82" style="enable-background:new 0 0 395.21 78.82;"
	 xml:space="preserve">
<style type="text/css">
	.st0{fill:#FF6C00;}
</style>
<defs>
</defs>
<path class="st0" d="M139.58,46.08c0-6.59-3.46-8.72-8.94-8.72c-5.03,0-8.38,2.79-10.39,5.25v34.86h-17.21V2.95h17.21V30.1
	c3.24-3.8,9.61-7.93,18.66-7.93c12.29,0,17.88,6.93,17.88,16.87v38.44h-17.21V46.08z M197.2,77.47h17.21V23.51H197.2v34.86
	c-2.01,2.57-5.36,5.25-10.28,5.25c-5.59,0-8.94-2.24-8.94-8.72v-31.4h-17.21v38.44c0,9.94,5.48,16.87,17.77,16.87
	c9.05,0,15.31-4.02,18.66-7.82V77.47z M355.75,22.16c-8.49,0-15.53,4.92-18.66,9.61c-2.23-6.37-7.6-9.61-15.31-9.61
	c-8.12,0-14.8,4.39-17.42,7.51c-0.11-0.24-0.23-0.48-0.35-0.71v-0.2h-0.11c-2.61-4.73-7.56-7-14.14-7c-2.06,0-4.04,0.29-5.89,0.8
	c-6.63,1.24-11.97,5.29-14.58,9.21c-2.23-6.37-7.6-9.61-15.31-9.61c-8.49,0-15.42,4.8-17.77,7.93v-6.59H219v53.97h17.21V42.61
	c1.79-2.23,5.03-5.25,9.61-5.25c5.25,0,7.15,3.13,7.15,7.26v32.85h17.21V42.61c1.68-2.23,5.03-5.25,9.72-5.25
	c4.13,0,6.23,2.02,6.9,4.95v35.16h0.25h16.96h0.14V42.45c1.81-2.22,5-5.09,9.47-5.09c5.25,0,7.15,3.13,7.15,7.26v32.85h17.21V42.61
	c1.68-2.23,5.03-5.25,9.72-5.25c5.14,0,7.15,3.13,7.15,7.26v32.85h17.1V38.37C371.95,27.3,365.69,22.16,355.75,22.16z M395.21,33.27
	c0,2.56-1,4.97-2.81,6.79c-1.81,1.81-4.22,2.81-6.79,2.81c-2.56,0-4.97-1-6.79-2.81c-1.81-1.81-2.81-4.22-2.81-6.79
	c0-2.56,1-4.97,2.81-6.79c1.81-1.81,4.22-2.81,6.78-2.81h0.01c2.56,0,4.97,1,6.78,2.81C394.21,28.3,395.21,30.71,395.21,33.27z
	 M392.79,33.27c0-3.96-3.22-7.17-7.17-7.17c-3.96,0-7.17,3.22-7.17,7.17c0,3.96,3.22,7.17,7.17,7.17
	C389.57,40.45,392.79,37.23,392.79,33.27z M390.16,30.72v5.17c0,2.31-1.87,2.88-3.28,2.88c-0.97,0-1.78-0.25-2.51-0.85l0.79-1.29
	c0.43,0.47,1.07,0.66,1.73,0.66c0.6,0,1.48-0.32,1.48-1.38v-0.43c-0.47,0.55-1.03,0.82-1.68,0.82c-1.38,0-2.5-0.95-2.5-2.86
	c0-0.49,0.05-0.92,0.15-1.28h-0.91v4.1h-1.81v-4.1h-0.94v-1.57h0.94v-0.28c0-1.21,0.86-2,2.03-2c0.49,0,0.92,0.11,1.2,0.26
	l-0.33,1.23c-0.14-0.08-0.31-0.12-0.47-0.12c-0.38,0-0.62,0.23-0.62,0.67v0.23l2.83-0.03c0.31-0.01,1.89-0.1,2.11,0.85v-0.67H390.16
	z M388.37,32.68c-0.22-0.31-0.7-0.5-1.08-0.5c-0.72,0-1.24,0.43-1.24,1.26c0,0.83,0.53,1.27,1.24,1.27c0.38,0,0.86-0.2,1.08-0.51
	V32.68z M82.41,51.13v26.34H44.34v-0.01c-0.22,0-0.44,0.01-0.66,0.01c-21.39,0-38.74-17.34-38.74-38.74c0-3.32,0.42-6.55,1.21-9.62
	C6.86,24.89,3.47,18.1,0,13.64c5.61,0.65,13.81,0.21,16.33-2.34C23.34,4.32,33,0,43.67,0c10.2,0,19.47,3.95,26.38,10.39l0.57,0.89
	L44.58,37.33c-0.58,0.58-0.58,1.53,0,2.11c0.29,0.29,0.67,0.44,1.06,0.44s0.77-0.15,1.06-0.44L83.96,2.18
	C96.33,16.25,95.82,37.68,82.41,51.13z M27.5,23.74c3.01,0,5.45-2.44,5.45-5.45c0-3.01-2.44-5.45-5.45-5.45
	c-1.02,0-1.96,0.28-2.78,0.77c0.04,0,0.07-0.01,0.11-0.01c1.63,0,2.96,1.32,2.96,2.96s-1.32,2.96-2.96,2.96
	c-1.24,0-2.29-0.76-2.73-1.85c0,0.04-0.01,0.08-0.01,0.13c-0.01,0.14-0.02,0.27-0.03,0.41c0.01,0.79,0.17,1.55,0.44,2.25
	C23.32,22.38,25.25,23.74,27.5,23.74z"/>
</svg>
