<svg xmlns="http://www.w3.org/2000/svg" data-inject-url="https://widgets.shophumm.com.au/content/images/logo-orange.svg" class="humm-widget-logo" viewBox="0 0 395.21 78.82"><path d="M139.58 46.08c0-6.59-3.46-8.72-8.94-8.72-5.03 0-8.38 2.79-10.39 5.25v34.86h-17.21V2.95h17.21V30.1c3.24-3.8 9.61-7.93 18.66-7.93 12.29 0 17.88 6.93 17.88 16.87v38.44h-17.21v-31.4zm57.62 31.39h17.21V23.51H197.2v34.86c-2.01 2.57-5.36 5.25-10.28 5.25-5.59 0-8.94-2.24-8.94-8.72V23.5h-17.21v38.44c0 9.94 5.48 16.87 17.77 16.87 9.05 0 15.31-4.02 18.66-7.82v6.48zm158.55-55.31c-8.49 0-15.53 4.92-18.66 9.61-2.23-6.37-7.6-9.61-15.31-9.61-8.12 0-14.8 4.39-17.42 7.51a15.6 15.6 0 00-.35-.71v-.2h-.11c-2.61-4.73-7.56-7-14.14-7-2.06 0-4.04.29-5.89.8-6.63 1.24-11.97 5.29-14.58 9.21-2.23-6.37-7.6-9.61-15.31-9.61-8.49 0-15.42 4.8-17.77 7.93V23.5H219v53.97h17.21V42.61c1.79-2.23 5.03-5.25 9.61-5.25 5.25 0 7.15 3.13 7.15 7.26v32.85h17.21V42.61c1.68-2.23 5.03-5.25 9.72-5.25 4.13 0 6.23 2.02 6.9 4.95v35.16h17.35V42.45c1.81-2.22 5-5.09 9.47-5.09 5.25 0 7.15 3.13 7.15 7.26v32.85h17.21V42.61c1.68-2.23 5.03-5.25 9.72-5.25 5.14 0 7.15 3.13 7.15 7.26v32.85h17.1v-39.1c0-11.07-6.26-16.21-16.2-16.21zm39.46 11.11c0 2.56-1 4.97-2.81 6.79a9.537 9.537 0 01-6.79 2.81c-2.56 0-4.97-1-6.79-2.81a9.537 9.537 0 01-2.81-6.79c0-2.56 1-4.97 2.81-6.79a9.532 9.532 0 016.78-2.81h.01c2.56 0 4.97 1 6.78 2.81a9.54 9.54 0 012.82 6.79zm-2.42 0c0-3.96-3.22-7.17-7.17-7.17-3.96 0-7.17 3.22-7.17 7.17 0 3.96 3.22 7.17 7.17 7.17 3.95.01 7.17-3.21 7.17-7.17zm-2.63-2.55v5.17c0 2.31-1.87 2.88-3.28 2.88-.97 0-1.78-.25-2.51-.85l.79-1.29c.43.47 1.07.66 1.73.66.6 0 1.48-.32 1.48-1.38v-.43c-.47.55-1.03.82-1.68.82-1.38 0-2.5-.95-2.5-2.86 0-.49.05-.92.15-1.28h-.91v4.1h-1.81v-4.1h-.94v-1.57h.94v-.28c0-1.21.86-2 2.03-2 .49 0 .92.11 1.2.26l-.33 1.23a.967.967 0 00-.47-.12c-.38 0-.62.23-.62.67v.23l2.83-.03c.31-.01 1.89-.1 2.11.85v-.67h1.79zm-1.79 1.96c-.22-.31-.7-.5-1.08-.5-.72 0-1.24.43-1.24 1.26 0 .83.53 1.27 1.24 1.27.38 0 .86-.2 1.08-.51v-1.52zM82.41 51.13v26.34H44.34v-.01c-.22 0-.44.01-.66.01-21.39 0-38.74-17.34-38.74-38.74 0-3.32.42-6.55 1.21-9.62C6.86 24.89 3.47 18.1 0 13.64c5.61.65 13.81.21 16.33-2.34C23.34 4.32 33 0 43.67 0c10.2 0 19.47 3.95 26.38 10.39l.57.89-26.04 26.05a1.497 1.497 0 001.06 2.55c.39 0 .77-.15 1.06-.44L83.96 2.18c12.37 14.07 11.86 35.5-1.55 48.95zM27.5 23.74a5.45 5.45 0 100-10.9c-1.02 0-1.96.28-2.78.77.04 0 .07-.01.11-.01 1.63 0 2.96 1.32 2.96 2.96s-1.32 2.96-2.96 2.96c-1.24 0-2.29-.76-2.73-1.85 0 .04-.01.08-.01.13l-.03.41c.01.79.17 1.55.44 2.25a5.434 5.434 0 005 3.28z"/></svg>