<svg width="167px" height="31px" viewBox="0 0 167 31" fill="#FF6B00" version="1.1" xmlns="http://www.w3.org/2000/svg" xmlns:xlink="http://www.w3.org/1999/xlink">
    <path d="M31.1919,1.16439 L16.4422,15.8673 C16.4079,15.9022 16.3668,15.93 16.3215,15.9488 C16.2762,15.9677 16.2276,15.9773 16.1785,15.977 C16.1045,15.9766 16.0324,15.9545 15.971,15.9134 C15.9096,15.8723 15.8617,15.8141 15.8333,15.746 C15.8049,15.678 15.7973,15.6031 15.8113,15.5307 C15.8254,15.4583 15.8606,15.3917 15.9124,15.3392 L26.4764,4.80868 C23.719,2.21093 20.0549,0.78613 16.2612,0.8365 C12.4676,0.88686 8.84281,2.40843 6.15581,5.07846 C5.20629,6.03868 2.11462,6.201 0,5.95866 C1.30731,7.63677 2.58709,10.1859 2.31416,11.7726 C1.76362,13.9222 1.71294,16.1687 2.16596,18.3407 C2.61898,20.5127 3.56375,22.5529 4.92817,24.3056 C6.29259,26.0583 8.04061,27.4771 10.0389,28.4538 C12.0371,29.4306 14.2328,29.9394 16.4583,29.9415 L16.7106,29.9415 L31.0588,29.9415 L31.0588,20.0443 C33.5596,17.543 34.9748,14.1627 34.9997,10.6315 C35.0245,7.10018 33.6571,3.70043 31.1919,1.16439 Z M9.44242,8.6084 C9.21502,8.6084 8.98985,8.5638 8.77976,8.477 C8.56968,8.3903 8.37878,8.2631 8.21799,8.1029 C8.05719,7.94258 7.92964,7.75229 7.84262,7.54287 C7.7556,7.33344 7.71081,7.10899 7.71081,6.88231 C7.70733,6.81453 7.70733,6.74661 7.71081,6.67883 C7.77447,6.83615 7.87986,6.97324 8.01569,7.07542 C8.15153,7.17761 8.31269,7.24103 8.48191,7.25891 C8.65114,7.27678 8.82205,7.24843 8.97635,7.1769 C9.13065,7.10536 9.26252,6.99333 9.35784,6.8528 C9.45316,6.71228 9.50833,6.54855 9.51745,6.37916 C9.52658,6.20978 9.4893,6.0411 9.40962,5.89121 C9.32995,5.74132 9.21087,5.61586 9.06514,5.52827 C8.91941,5.44067 8.75252,5.39425 8.58235,5.39396 L8.54795,5.39396 C8.77718,5.25894 9.03455,5.17843 9.30007,5.15869 C9.56559,5.13895 9.8321,5.18051 10.0789,5.28014 C10.3257,5.37977 10.5461,5.5348 10.723,5.73316 C10.8999,5.93152 11.0285,6.16787 11.0989,6.42385 C11.1693,6.67982 11.1795,6.94853 11.1287,7.20908 C11.078,7.46962 10.9676,7.715 10.8062,7.92612 C10.6449,8.1372 10.4369,8.3084 10.1983,8.4264 C9.95981,8.5443 9.69721,8.6058 9.43095,8.6061 L9.44242,8.6084 Z" id="Shape"></path>
    <path d="M64.3301,30.23 L71.0802,30.23 L71.0802,15.156 C71.0802,11.2552 68.889,8.537 64.0678,8.537 C60.5175,8.537 58.021,10.1584 56.7502,11.6486 L56.7502,1 L50,1 L50,30.23 L56.7502,30.23 L56.7502,16.558 C57.5394,15.6043 58.8532,14.4979 60.825,14.4979 C62.971,14.4979 64.3301,15.3301 64.3301,17.9147 L64.3301,30.23 Z" id="Shape"></path>
    <path d="M87.6446,30.23 L94.3923,30.23 L94.3923,9.064 L87.6446,9.064 L87.6446,22.7359 C86.8553,23.7445 85.5392,24.796 83.6126,24.796 C81.4214,24.796 80.1052,23.9186 80.1052,21.3769 L80.1052,9.064 L73.3574,9.064 L73.3574,24.138 C73.3574,28.0388 75.5033,30.7546 80.3245,30.7546 C83.8749,30.7546 86.3284,29.1785 87.6446,27.6883 L87.6446,30.23 Z" id="Shape"></path>
    <path d="M150.298,8.537 C146.96,8.537 144.206,10.466 142.981,12.3067 C142.103,9.8079 140,8.537 136.977,8.537 C133.639,8.537 130.928,10.423 130.01,11.6486 L130.01,9.064 L126.731,9.064 C125.767,8.6952 124.74,8.5163 123.708,8.537 C120.37,8.537 117.616,10.466 116.39,12.3067 C115.513,9.8079 113.41,8.537 110.386,8.537 C107.048,8.537 104.339,10.423 103.419,11.6486 L103.419,9.064 L96.6689,9.064 L96.6689,30.23 L103.419,30.23 L103.419,16.558 C104.12,15.6806 105.391,14.4979 107.186,14.4979 C109.246,14.4979 109.993,15.7235 109.993,17.3449 L109.993,30.2205 L116.741,30.2205 L116.741,16.558 C117.396,15.6806 118.712,14.4979 120.556,14.4979 C122.172,14.4979 123,15.2895 123.262,16.4388 L123.262,30.23 L130.064,30.23 L130.064,16.4937 C130.78,15.6234 132.027,14.4979 133.779,14.4979 C135.839,14.4979 136.583,15.7235 136.583,17.3449 L136.583,30.2205 L143.333,30.2205 L143.333,16.558 C143.989,15.6806 145.305,14.4979 147.148,14.4979 C149.163,14.4979 149.952,15.7235 149.952,17.3449 L149.952,30.2205 L156.657,30.2205 L156.657,14.8914 C156.653,10.5542 154.197,8.537 150.298,8.537 Z" id="Shape"></path>
    <path d="M164.264,13.2748 C164.211,13.3362 164.146,13.3857 164.072,13.4198 C163.998,13.4539 163.918,13.472 163.837,13.4727 C163.705,13.4727 163.578,13.4202 163.485,13.3267 C163.391,13.2332 163.339,13.1065 163.339,12.9743 C163.339,12.8422 163.391,12.7154 163.485,12.6219 C163.578,12.5285 163.705,12.476 163.837,12.476 C163.919,12.4767 163.999,12.4949 164.073,12.5295 C164.146,12.5641 164.212,12.6141 164.264,12.6763 L164.264,13.2748 Z M164.264,12.166 C164.178,11.7917 163.549,11.8298 163.432,11.8322 L162.314,11.8441 L162.314,11.7511 C162.31,11.7177 162.313,11.6838 162.324,11.6518 C162.334,11.6198 162.351,11.5903 162.373,11.5653 C162.396,11.5403 162.424,11.5204 162.454,11.5068 C162.485,11.4932 162.518,11.4863 162.552,11.4865 C162.617,11.4856 162.681,11.5021 162.738,11.5342 L162.867,11.0573 C162.719,10.9844 162.555,10.9492 162.39,10.9548 C162.284,10.9483 162.178,10.9642 162.079,11.0012 C161.98,11.0383 161.889,11.0957 161.814,11.1699 C161.738,11.244 161.678,11.3332 161.639,11.4317 C161.6,11.5301 161.582,11.6357 161.586,11.7416 L161.586,11.8441 L161.217,11.8441 L161.217,12.4664 L161.586,12.4664 L161.586,14.0831 L162.302,14.0831 L162.302,12.4664 L162.678,12.4664 C162.636,12.6315 162.616,12.8015 162.619,12.9719 C162.619,13.7278 163.06,14.1045 163.606,14.1045 C163.734,14.1042 163.86,14.0748 163.975,14.0187 C164.09,13.9625 164.19,13.881 164.269,13.7802 L164.269,13.9519 C164.27,14.027 164.255,14.1014 164.225,14.1704 C164.196,14.2393 164.152,14.3013 164.097,14.3523 C164.042,14.4034 163.977,14.4422 163.906,14.4665 C163.835,14.4908 163.759,14.4998 163.685,14.4932 C163.559,14.4995 163.434,14.4799 163.317,14.4356 C163.199,14.3913 163.092,14.3232 163.003,14.2357 L162.678,14.7531 C162.957,14.9822 163.31,15.1009 163.67,15.0869 C164.228,15.0869 164.965,14.8651 164.965,13.9519 L164.965,11.9109 L164.25,11.9109 L164.264,12.166 Z" id="Shape"></path>
    <path d="M163.176,15.7521 C162.616,15.7507 162.069,15.5833 161.605,15.2712 C161.14,14.9591 160.778,14.5162 160.564,13.9985 C160.351,13.4808 160.296,12.9114 160.406,12.3624 C160.516,11.8134 160.787,11.3094 161.183,10.9139 C161.579,10.5185 162.084,10.2494 162.634,10.1407 C163.183,10.032 163.752,10.0885 164.269,10.3031 C164.786,10.5177 165.228,10.8808 165.539,11.3465 C165.85,11.8121 166.016,12.3595 166.016,12.9194 C166.016,13.6705 165.717,14.3906 165.186,14.9217 C164.655,15.4528 163.935,15.7514 163.184,15.7521 L163.176,15.7521 Z M165.864,10.2394 C165.244,9.6176 164.428,9.2299 163.554,9.1424 C162.681,9.055 161.804,9.2731 161.073,9.7597 C160.343,10.2464 159.804,10.9713 159.548,11.811 C159.292,12.6507 159.335,13.5532 159.67,14.3646 C160.005,15.176 160.611,15.8462 161.385,16.2608 C162.158,16.6754 163.052,16.8089 163.913,16.6384 C164.774,16.4679 165.55,16.0041 166.107,15.3259 C166.664,14.6478 166.969,13.7973 166.97,12.9194 C166.972,12.4216 166.874,11.9283 166.684,11.4683 C166.494,11.0082 166.214,10.5905 165.861,10.2394 L165.864,10.2394 Z" id="Shape"></path>
</svg>