<svg width="167" height="33" viewBox="0 0 167 33" fill="none" xmlns="http://www.w3.org/2000/svg">
<path d="M31.1919 3.16439L16.4422 17.8673C16.4079 17.9022 16.3668 17.93 16.3215 17.9488C16.2762 17.9677 16.2276 17.9773 16.1785 17.977C16.1045 17.9766 16.0324 17.9545 15.971 17.9134C15.9096 17.8723 15.8617 17.8141 15.8333 17.746C15.8049 17.678 15.7973 17.6031 15.8113 17.5307C15.8254 17.4583 15.8606 17.3917 15.9124 17.3392L26.4764 6.80868C23.719 4.21093 20.0549 2.78613 16.2612 2.8365C12.4676 2.88686 8.84281 4.40843 6.15581 7.07846C5.20629 8.03868 2.11462 8.201 0 7.95866C1.30731 9.63677 2.58709 12.1859 2.31416 13.7726C1.76362 15.9222 1.71294 18.1687 2.16596 20.3407C2.61898 22.5127 3.56375 24.5529 4.92817 26.3056C6.29259 28.0583 8.04061 29.4771 10.0389 30.4538C12.0371 31.4306 14.2328 31.9394 16.4583 31.9415H16.7106H31.0588V22.0443C33.5596 19.543 34.9748 16.1627 34.9997 12.6315C35.0245 9.10018 33.6571 5.70043 31.1919 3.16439ZM9.44242 10.6084C9.21502 10.6084 8.98985 10.5638 8.77976 10.477C8.56968 10.3903 8.37878 10.2631 8.21799 10.1029C8.05719 9.94258 7.92964 9.75229 7.84262 9.54287C7.7556 9.33344 7.71081 9.10899 7.71081 8.88231C7.70733 8.81453 7.70733 8.74661 7.71081 8.67883C7.77447 8.83615 7.87986 8.97324 8.01569 9.07542C8.15153 9.17761 8.31269 9.24103 8.48191 9.25891C8.65114 9.27678 8.82205 9.24843 8.97635 9.1769C9.13065 9.10536 9.26252 8.99333 9.35784 8.8528C9.45316 8.71228 9.50833 8.54855 9.51745 8.37916C9.52658 8.20978 9.4893 8.0411 9.40962 7.89121C9.32995 7.74132 9.21087 7.61586 9.06514 7.52827C8.91941 7.44067 8.75252 7.39425 8.58235 7.39396H8.54795C8.77718 7.25894 9.03455 7.17843 9.30007 7.15869C9.56559 7.13895 9.8321 7.18051 10.0789 7.28014C10.3257 7.37977 10.5461 7.5348 10.723 7.73316C10.8999 7.93152 11.0285 8.16787 11.0989 8.42385C11.1693 8.67982 11.1795 8.94853 11.1287 9.20908C11.078 9.46962 10.9676 9.715 10.8062 9.92612C10.6449 10.1372 10.4369 10.3084 10.1983 10.4264C9.95981 10.5443 9.69721 10.6058 9.43095 10.6061L9.44242 10.6084Z" fill="white"/>
<path d="M64.3301 32.23H71.0802V17.156C71.0802 13.2552 68.889 10.537 64.0678 10.537C60.5175 10.537 58.021 12.1584 56.7502 13.6486V3H50V32.23H56.7502V18.558C57.5394 17.6043 58.8532 16.4979 60.825 16.4979C62.971 16.4979 64.3301 17.3301 64.3301 19.9147V32.23Z" fill="white"/>
<path d="M87.6446 32.23H94.3923V11.064H87.6446V24.7359C86.8553 25.7445 85.5392 26.796 83.6126 26.796C81.4214 26.796 80.1052 25.9186 80.1052 23.3769V11.064H73.3574V26.138C73.3574 30.0388 75.5033 32.7546 80.3245 32.7546C83.8749 32.7546 86.3284 31.1785 87.6446 29.6883V32.23Z" fill="white"/>
<path d="M150.298 10.537C146.96 10.537 144.206 12.466 142.981 14.3067C142.103 11.8079 140 10.537 136.977 10.537C133.639 10.537 130.928 12.423 130.01 13.6486V11.064H126.731C125.767 10.6952 124.74 10.5163 123.708 10.537C120.37 10.537 117.616 12.466 116.39 14.3067C115.513 11.8079 113.41 10.537 110.386 10.537C107.048 10.537 104.339 12.423 103.419 13.6486V11.064H96.6689V32.23H103.419V18.558C104.12 17.6806 105.391 16.4979 107.186 16.4979C109.246 16.4979 109.993 17.7235 109.993 19.3449V32.2205H116.741V18.558C117.396 17.6806 118.712 16.4979 120.556 16.4979C122.172 16.4979 123 17.2895 123.262 18.4388V32.23H130.064V18.4937C130.78 17.6234 132.027 16.4979 133.779 16.4979C135.839 16.4979 136.583 17.7235 136.583 19.3449V32.2205H143.333V18.558C143.989 17.6806 145.305 16.4979 147.148 16.4979C149.163 16.4979 149.952 17.7235 149.952 19.3449V32.2205H156.657V16.8914C156.653 12.5542 154.197 10.537 150.298 10.537Z" fill="white"/>
<path d="M164.264 15.2748C164.211 15.3362 164.146 15.3857 164.072 15.4198C163.998 15.4539 163.918 15.472 163.837 15.4727C163.705 15.4727 163.578 15.4202 163.485 15.3267C163.391 15.2332 163.339 15.1065 163.339 14.9743C163.339 14.8422 163.391 14.7154 163.485 14.6219C163.578 14.5285 163.705 14.476 163.837 14.476C163.919 14.4767 163.999 14.4949 164.073 14.5295C164.146 14.5641 164.212 14.6141 164.264 14.6763V15.2748ZM164.264 14.166C164.178 13.7917 163.549 13.8298 163.432 13.8322L162.314 13.8441V13.7511C162.31 13.7177 162.313 13.6838 162.324 13.6518C162.334 13.6198 162.351 13.5903 162.373 13.5653C162.396 13.5403 162.424 13.5204 162.454 13.5068C162.485 13.4932 162.518 13.4863 162.552 13.4865C162.617 13.4856 162.681 13.5021 162.738 13.5342L162.867 13.0573C162.719 12.9844 162.555 12.9492 162.39 12.9548C162.284 12.9483 162.178 12.9642 162.079 13.0012C161.98 13.0383 161.889 13.0957 161.814 13.1699C161.738 13.244 161.678 13.3332 161.639 13.4317C161.6 13.5301 161.582 13.6357 161.586 13.7416V13.8441H161.217V14.4664H161.586V16.0831H162.302V14.4664H162.678C162.636 14.6315 162.616 14.8015 162.619 14.9719C162.619 15.7278 163.06 16.1045 163.606 16.1045C163.734 16.1042 163.86 16.0748 163.975 16.0187C164.09 15.9625 164.19 15.881 164.269 15.7802V15.9519C164.27 16.027 164.255 16.1014 164.225 16.1704C164.196 16.2393 164.152 16.3013 164.097 16.3523C164.042 16.4034 163.977 16.4422 163.906 16.4665C163.835 16.4908 163.759 16.4998 163.685 16.4932C163.559 16.4995 163.434 16.4799 163.317 16.4356C163.199 16.3913 163.092 16.3232 163.003 16.2357L162.678 16.7531C162.957 16.9822 163.31 17.1009 163.67 17.0869C164.228 17.0869 164.965 16.8651 164.965 15.9519V13.9109H164.25L164.264 14.166Z" fill="white"/>
<path d="M163.176 17.7521C162.616 17.7507 162.069 17.5833 161.605 17.2712C161.14 16.9591 160.778 16.5162 160.564 15.9985C160.351 15.4808 160.296 14.9114 160.406 14.3624C160.516 13.8134 160.787 13.3094 161.183 12.9139C161.579 12.5185 162.084 12.2494 162.634 12.1407C163.183 12.032 163.752 12.0885 164.269 12.3031C164.786 12.5177 165.228 12.8808 165.539 13.3465C165.85 13.8121 166.016 14.3595 166.016 14.9194C166.016 15.6705 165.717 16.3906 165.186 16.9217C164.655 17.4528 163.935 17.7514 163.184 17.7521H163.176ZM165.864 12.2394C165.244 11.6176 164.428 11.2299 163.554 11.1424C162.681 11.055 161.804 11.2731 161.073 11.7597C160.343 12.2464 159.804 12.9713 159.548 13.811C159.292 14.6507 159.335 15.5532 159.67 16.3646C160.005 17.176 160.611 17.8462 161.385 18.2608C162.158 18.6754 163.052 18.8089 163.913 18.6384C164.774 18.4679 165.55 18.0041 166.107 17.3259C166.664 16.6478 166.969 15.7973 166.97 14.9194C166.972 14.4216 166.874 13.9283 166.684 13.4683C166.494 13.0082 166.214 12.5905 165.861 12.2394" fill="white"/>
</svg>
