<svg width="50" height="45" viewBox="0 0 50 45" fill="none" xmlns="http://www.w3.org/2000/svg">
<path d="M26.6094 8.57253C23.6554 8.57253 20.7246 9.30062 18.1195 10.7098C17.2589 11.1795 16.9565 12.2364 17.3985 13.1054C17.8637 13.9744 18.9104 14.2797 19.771 13.8335C21.8644 12.7062 24.2369 12.119 26.6094 12.119C34.634 12.119 41.1468 18.6952 41.1468 26.798C41.1468 34.9008 34.634 41.477 26.6094 41.477C23.981 41.477 21.4224 40.7724 19.1895 39.4337C18.3754 38.9405 17.2822 39.1989 16.7937 40.0444C16.3053 40.8899 16.5844 41.9702 17.3985 42.4635C20.1664 44.131 23.353 45 26.6094 45C36.5413 45 44.6358 36.8267 44.6358 26.798C44.6358 16.7693 36.5646 8.57253 26.6094 8.57253Z" fill="white"/>
<path d="M20.7943 3.52296H32.4243C33.3779 3.52296 34.1687 2.72443 34.1687 1.76148C34.1687 0.798539 33.3779 0 32.4243 0H20.7943C19.8407 0 19.0498 0.798539 19.0498 1.76148C19.0498 2.72443 19.8407 3.52296 20.7943 3.52296Z" fill="white"/>
<path d="M49.4969 10.8977L45.3102 6.5762C44.6357 5.87161 43.5192 5.87159 42.8447 6.55269C42.1469 7.2338 42.1468 8.36114 42.8214 9.04225L47.0082 13.3638C47.3571 13.7161 47.799 13.8805 48.241 13.8805C48.6829 13.8805 49.1248 13.7161 49.4737 13.3638C50.1715 12.7062 50.1715 11.5788 49.4969 10.8977Z" fill="white"/>
<path d="M26.5629 15.7829C25.6092 15.7829 24.8184 16.5814 24.8184 17.5444V26.7745C24.8184 27.1738 24.9347 27.5496 25.1673 27.8549L29.7262 33.8674C30.0751 34.3137 30.5868 34.5485 31.1218 34.5485C31.4939 34.5485 31.8661 34.4311 32.1917 34.1962C32.9593 33.6091 33.0989 32.5052 32.5174 31.7301L28.3074 26.2109V17.5913C28.3074 16.5814 27.5165 15.7829 26.5629 15.7829Z" fill="white"/>
<path d="M5.3266 20.6445H16.9332C17.8869 20.6445 18.6777 19.846 18.6777 18.883C18.6777 17.9201 17.8869 17.1216 16.9332 17.1216H5.3266C4.37294 17.1216 3.58211 17.9201 3.58211 18.883C3.58211 19.846 4.37294 20.6445 5.3266 20.6445Z" fill="white"/>
<path d="M18.3056 26.7745C18.3056 25.8116 17.5147 25.013 16.5611 25.013H1.74449C0.790835 25.013 0 25.8116 0 26.7745C0 27.7375 0.790835 28.536 1.74449 28.536H16.5611C17.5147 28.536 18.3056 27.7375 18.3056 26.7745Z" fill="white"/>
<path d="M23.3064 34.666C23.3064 33.703 22.5156 32.9045 21.5619 32.9045H8.04796C7.09431 32.9045 6.30347 33.703 6.30347 34.666C6.30347 35.6289 7.09431 36.4275 8.04796 36.4275H21.5619C22.5156 36.4275 23.3064 35.6524 23.3064 34.666Z" fill="white"/>
</svg>
