<svg width="97" height="88" viewBox="0 0 97 88" fill="none" xmlns="http://www.w3.org/2000/svg">
<path d="M58.1899 19.1829L57.9053 23.9667C57.8244 25.3354 58.872 26.5158 60.2385 26.5967C60.2905 26.6 60.3392 26.6011 60.3913 26.6011C61.7024 26.6011 62.7921 25.5735 62.8729 24.2612L63.1575 19.4774C63.2383 18.1087 62.1908 16.9283 60.8143 16.8474C59.4467 16.7921 58.2729 17.8385 58.1899 19.1829Z" fill="#333333"/>
<path d="M46.0675 16.8441L46.0487 16.8452C44.8439 16.9194 43.576 17.8463 43.5394 19.2704L43.2548 31.1258C43.2227 32.4956 44.3113 33.6384 45.6933 33.6727H45.7442C47.0808 33.6727 48.1959 32.5842 48.2302 31.2454L48.5148 19.3911C48.5469 18.0201 47.4584 16.8784 46.0875 16.8441H46.0675Z" fill="#333333"/>
<path d="M31.3759 16.8441C30.026 16.8441 28.9109 17.9426 28.8899 19.2925L28.6053 37.5463C28.5953 38.2107 28.8445 38.8386 29.3062 39.3159C29.7691 39.7931 30.3892 40.0622 31.0603 40.0722H31.0924C32.4434 40.0722 33.5585 38.9737 33.5795 37.6238L33.8641 19.37C33.8852 17.998 32.7867 16.8652 31.4091 16.8441H31.3759Z" fill="#333333"/>
<path d="M72.8401 19.2105L72.5555 25.1383C72.4913 26.5092 73.5521 27.6775 74.9197 27.7417H74.9341C74.9707 27.7428 75.005 27.7439 75.0426 27.7439C76.3693 27.7439 77.4589 26.7041 77.5242 25.3763L77.8088 19.4497C77.8731 18.0799 76.8133 16.9128 75.4391 16.8463C74.0693 16.7998 72.9076 17.8585 72.8401 19.2105Z" fill="#333333"/>
<path d="M28.8214 73.6297H8.1358C6.39281 73.6297 4.97428 71.9809 4.97428 69.9544V8.64962C4.97428 6.62314 6.39281 4.97428 8.1358 4.97428H87.391C89.1339 4.97428 90.5525 6.62314 90.5525 8.64962V18.3081C90.5525 19.679 91.6687 20.7952 93.0396 20.7952C94.4105 20.7952 95.5268 19.679 95.5268 18.3081V8.64962C95.5268 3.8802 91.8769 0 87.391 0H8.1358C3.64987 0 0 3.8802 0 8.64962V69.9544C0 74.7238 3.64987 78.604 8.1358 78.604H28.8225C30.1934 78.604 31.3096 77.4878 31.3096 76.1169C31.3096 74.746 30.1934 73.6297 28.8214 73.6297Z" fill="#333333"/>
<path d="M61.8904 53.5167C61.1806 52.818 60.0356 52.8246 59.3369 53.53L57.2949 55.5941L55.2518 53.5289C54.5508 52.8246 53.4069 52.8191 52.6993 53.5156C52.356 53.8544 52.1667 54.3074 52.1633 54.7891C52.1611 55.2719 52.3461 55.7259 52.6849 56.0692L54.7546 58.161L52.6849 60.2528C51.9851 60.9604 51.9906 62.1054 52.6982 62.8064C53.0382 63.143 53.4889 63.3279 53.9684 63.3279C54.4534 63.3279 54.9096 63.1375 55.2518 62.792L57.2938 60.7279L59.3357 62.792C59.6779 63.1375 60.1342 63.3279 60.6192 63.3279C61.0976 63.3279 61.5494 63.143 61.8893 62.8064C62.5969 62.1054 62.6036 60.9604 61.9026 60.2528L59.833 58.161L61.9026 56.0692C62.6047 55.3638 62.598 54.2177 61.8904 53.5167Z" fill="#333333"/>
<path d="M12.2961 57.5442C12.2961 59.8309 14.1565 61.6913 16.4432 61.6913C18.7299 61.6913 20.5903 59.8309 20.5903 57.5442C20.5903 55.2575 18.7299 53.3971 16.4432 53.3971C14.1565 53.3971 12.2961 55.2575 12.2961 57.5442Z" fill="#333333"/>
<path d="M78.7191 54.7912C78.7158 54.3095 78.5264 53.8566 78.1832 53.5177C77.4778 52.819 76.3328 52.8245 75.6296 53.531L73.5876 55.5952L71.5445 53.5299C70.8424 52.8245 69.6974 52.819 68.992 53.5166C68.6488 53.8555 68.4594 54.3084 68.4561 54.7901C68.4539 55.2729 68.6388 55.7269 68.9776 56.0702L71.0473 58.162L68.9776 60.2538C68.2778 60.9615 68.2833 62.1065 68.9909 62.8074C69.3309 63.1441 69.7816 63.329 70.2611 63.329C70.7461 63.329 71.2023 63.1385 71.5445 62.793L73.5865 60.7289L75.6285 62.793C75.9706 63.1385 76.4269 63.329 76.9119 63.329C77.3903 63.329 77.8421 63.1441 78.1821 62.8074C78.5253 62.4686 78.7147 62.0157 78.718 61.534C78.7202 61.0511 78.5353 60.5971 78.1965 60.2538L76.1268 58.162L78.1965 56.0702C78.5364 55.7281 78.7224 55.2729 78.7191 54.7912Z" fill="#333333"/>
<path d="M95.6332 83.7544L85.4078 73.529C88.9381 69.0552 90.8782 63.4841 90.8782 57.7955C90.8782 43.7697 79.4679 32.3594 65.4431 32.3594C51.4172 32.3594 40.0059 43.7697 40.0059 57.7955C40.0059 71.8214 51.4172 83.2328 65.4431 83.2328C71.4827 83.2328 77.3274 81.059 81.9462 77.1024L92.1151 87.2713C92.5846 87.7409 93.2092 88 93.8736 88C94.538 88 95.1626 87.7409 95.6321 87.2713C96.1016 86.8018 96.3607 86.1773 96.3607 85.5129C96.3618 84.8484 96.1027 84.2239 95.6332 83.7544ZM85.9039 57.7955C85.9039 63.0012 83.9239 67.97 80.3294 71.7915C80.3017 71.8081 80.2663 71.8336 80.2309 71.869C80.1788 71.9211 80.1467 71.9731 80.1246 72.0141C76.2244 76.0405 71.0132 78.2574 65.4442 78.2574C54.1613 78.2574 44.9812 69.0774 44.9812 57.7944C44.9812 46.5115 54.1613 37.3325 65.4442 37.3325C76.7261 37.3337 85.9039 46.5126 85.9039 57.7955Z" fill="#333333"/>
<path d="M31.995 53.3971C29.7083 53.3971 27.8479 55.2575 27.8479 57.5442C27.8479 59.8309 29.7083 61.6913 31.995 61.6913C34.2817 61.6913 36.1421 59.8309 36.1421 57.5442C36.1421 55.2575 34.2817 53.3971 31.995 53.3971Z" fill="#333333"/>
<path d="M16.4433 45.5282C17.7987 45.5282 18.9138 44.4252 18.9304 43.0687L19.215 19.3601C19.2227 18.6956 18.9714 18.0678 18.5074 17.5927C18.0434 17.1176 17.4211 16.8508 16.7511 16.843H16.7267C15.3713 16.843 14.2562 17.946 14.2396 19.3014L13.955 43.01C13.9473 43.6745 14.1986 44.3012 14.6626 44.7763C15.1188 45.2436 15.729 45.5082 16.3868 45.5238C16.4056 45.5271 16.4244 45.5282 16.4433 45.5282Z" fill="#333333"/>
</svg>
