<svg width="45" height="35" viewBox="0 0 45 35" fill="none" xmlns="http://www.w3.org/2000/svg">
<path d="M13.5322 19.847H38.3551C38.9362 19.847 39.4343 19.5176 39.6834 18.9411L44.9136 6.01175C45.0797 5.59998 44.9966 5.10587 44.7476 4.6941C44.4985 4.28234 44.0004 4.03528 43.5853 4.03528H16.853C16.0228 4.03528 15.4416 4.6941 15.4416 5.43528C15.4416 6.2588 16.1058 6.83527 16.853 6.83527H41.4268L37.3588 16.9647H14.1964L8.30196 0.90588C8.13593 0.329411 7.55478 0 6.97364 0H1.41133C0.581135 0 0 0.658821 0 1.4C0 2.22352 0.664155 2.79999 1.41133 2.79999H5.97741L11.2907 17.3764C9.46423 18.1999 8.21894 20.0117 8.21894 22.0705C8.21894 24.9529 10.5435 27.2587 13.4492 27.2587H39.8494C40.6796 27.2587 41.2608 26.5999 41.2608 25.8587C41.2608 25.0352 40.5966 24.4587 39.8494 24.4587H13.4492C12.1209 24.4587 11.1246 23.3882 11.1246 22.1529C11.2076 20.8352 12.2039 19.847 13.5322 19.847Z" fill="white"/>
<path d="M18.9286 30.2235C17.6003 30.2235 16.5211 31.2941 16.5211 32.6118C16.5211 33.9294 17.6003 35 18.9286 35C20.257 35 21.3362 33.9294 21.3362 32.6118C21.3362 31.2941 20.257 30.2235 18.9286 30.2235Z" fill="white"/>
<path d="M32.2943 30.2235C30.966 30.2235 29.8868 31.2941 29.8868 32.6118C29.8868 33.9294 30.966 35 32.2943 35C33.6226 35 34.7019 33.9294 34.7019 32.6118C34.7019 31.2941 33.6226 30.2235 32.2943 30.2235Z" fill="white"/>
</svg>
