<svg width="105" height="88" viewBox="0 0 105 88" fill="none" xmlns="http://www.w3.org/2000/svg">
    <path d="M96.6329 77.8088C96.6329 79.3161 95.3424 80.6081 93.8368 80.6081H10.1699C8.66436 80.6081 7.37383 79.3161 7.37383 77.8088V44.2169H96.4178V77.8088H96.6329ZM94.0519 9.33303H86.3089C84.5883 9.33303 83.0827 10.8404 83.0827 12.563C83.0827 14.2857 84.5883 15.793 86.3089 15.793H94.0519C95.5575 15.793 96.8479 17.085 96.8479 18.5923V37.9723H7.80402V18.5923C7.80402 17.085 9.09449 15.793 10.6001 15.793H29.5273V21.3917C29.5273 23.1143 31.0329 24.6216 32.7535 24.6216C34.4742 24.6216 35.9798 23.1143 35.9798 21.3917V4.38038C35.9798 2.65772 34.4742 1.15039 32.7535 1.15039C31.0329 1.15039 29.5273 2.65772 29.5273 4.38038V9.1177H10.6001C5.43809 9.1177 1.35156 13.209 1.35156 18.377V77.8088C1.35156 82.9768 5.43809 87.0681 10.6001 87.0681H94.267C99.429 87.0681 103.516 82.9768 103.516 77.8088V18.377C103.3 13.4243 99.2139 9.33303 94.0519 9.33303Z" fill="#333333"/>
    <path d="M96.6329 77.8088C96.6329 79.3161 95.3424 80.6081 93.8368 80.6081H10.1699C8.66436 80.6081 7.37383 79.3161 7.37383 77.8088V44.2169H96.4178V77.8088H96.6329ZM94.0519 9.33303H86.3089C84.5883 9.33303 83.0827 10.8404 83.0827 12.563C83.0827 14.2857 84.5883 15.793 86.3089 15.793H94.0519C95.5575 15.793 96.8479 17.085 96.8479 18.5923V37.9723H7.80402V18.5923C7.80402 17.085 9.09449 15.793 10.6001 15.793H29.5273V21.3917C29.5273 23.1143 31.0329 24.6216 32.7535 24.6216C34.4742 24.6216 35.9798 23.1143 35.9798 21.3917V4.38038C35.9798 2.65772 34.4742 1.15039 32.7535 1.15039C31.0329 1.15039 29.5273 2.65772 29.5273 4.38038V9.1177H10.6001C5.43809 9.1177 1.35156 13.209 1.35156 18.377V77.8088C1.35156 82.9768 5.43809 87.0681 10.6001 87.0681H94.267C99.429 87.0681 103.516 82.9768 103.516 77.8088V18.377C103.3 13.4243 99.2139 9.33303 94.0519 9.33303Z" fill="#333333" stroke="white" stroke-width="1.044"/>
    <path d="M47.5934 15.793H68.4564V21.3916C68.4564 23.1143 69.9619 24.6216 71.6826 24.6216C73.4032 24.6216 74.9088 23.1143 74.9088 21.3916V4.38038C74.9088 2.65772 73.4032 1.15039 71.6826 1.15039C69.9619 1.15039 68.4564 2.65772 68.4564 4.38038V9.11769H47.5934C45.8728 9.11769 44.3672 10.625 44.3672 12.3477C44.3672 14.2857 45.8728 15.793 47.5934 15.793Z" fill="#333333"/>
    <path d="M47.5934 15.793H68.4564V21.3916C68.4564 23.1143 69.9619 24.6216 71.6826 24.6216C73.4032 24.6216 74.9088 23.1143 74.9088 21.3916V4.38038C74.9088 2.65772 73.4032 1.15039 71.6826 1.15039C69.9619 1.15039 68.4564 2.65772 68.4564 4.38038V9.11769H47.5934C45.8728 9.11769 44.3672 10.625 44.3672 12.3477C44.3672 14.2857 45.8728 15.793 47.5934 15.793Z" fill="#333333" stroke="white" stroke-width="1.044"/>
    <path d="M31.895 65.9658C34.0458 65.9658 35.7665 64.2432 35.7665 62.0899C35.7665 59.9365 34.0458 58.2139 31.895 58.2139C29.7441 58.2139 28.0234 59.9365 28.0234 62.0899C28.0234 64.0278 29.7441 65.9658 31.895 65.9658Z" fill="#333333"/>
    <path d="M31.895 65.9658C34.0458 65.9658 35.7665 64.2432 35.7665 62.0899C35.7665 59.9365 34.0458 58.2139 31.895 58.2139C29.7441 58.2139 28.0234 59.9365 28.0234 62.0899C28.0234 64.0278 29.7441 65.9658 31.895 65.9658Z" fill="#333333" stroke="white" stroke-width="1.044"/>
    <path d="M52.3285 65.9658C54.4793 65.9658 56.2 64.2432 56.2 62.0899C56.2 59.9365 54.4793 58.2139 52.3285 58.2139C50.1777 58.2139 48.457 59.9365 48.457 62.0899C48.457 64.0278 50.1777 65.9658 52.3285 65.9658Z" fill="#333333"/>
    <path d="M52.3285 65.9658C54.4793 65.9658 56.2 64.2432 56.2 62.0899C56.2 59.9365 54.4793 58.2139 52.3285 58.2139C50.1777 58.2139 48.457 59.9365 48.457 62.0899C48.457 64.0278 50.1777 65.9658 52.3285 65.9658Z" fill="#333333" stroke="white" stroke-width="1.044"/>
    <path d="M72.5459 65.9658C74.6967 65.9658 76.4174 64.2432 76.4174 62.0899C76.4174 59.9365 74.6967 58.2139 72.5459 58.2139C70.3951 58.2139 68.6744 59.9365 68.6744 62.0899C68.4593 64.0278 70.18 65.9658 72.5459 65.9658Z" fill="#333333"/>
    <path d="M72.5459 65.9658C74.6967 65.9658 76.4174 64.2432 76.4174 62.0899C76.4174 59.9365 74.6967 58.2139 72.5459 58.2139C70.3951 58.2139 68.6744 59.9365 68.6744 62.0899C68.4593 64.0278 70.18 65.9658 72.5459 65.9658Z" fill="#333333" stroke="white" stroke-width="1.044"/>
</svg>
