<svg width="107" height="89" viewBox="0 0 107 89" fill="none" xmlns="http://www.w3.org/2000/svg">
    <path d="M38.1146 33.2496L50.3742 44.2316C51.4497 45.0929 52.5251 45.5236 53.8156 45.5236C55.106 45.5236 56.1815 45.0929 57.2569 44.2316L69.5165 33.2496C70.807 31.9576 71.0221 29.8043 69.7316 28.5123C68.4411 27.2203 66.2903 27.005 64.9998 28.2969L57.0418 35.1876V4.61036C57.0418 2.67237 55.5362 1.16504 53.6005 1.16504C51.6647 1.16504 50.1592 2.67237 50.1592 4.61036V35.1876L42.2011 28.2969C40.9106 27.005 38.7598 27.2203 37.4693 28.5123C36.609 29.8043 36.8241 31.9576 38.1146 33.2496Z" fill="#333333"/>
    <path d="M38.1146 33.2496L50.3742 44.2316C51.4497 45.0929 52.5251 45.5236 53.8156 45.5236C55.106 45.5236 56.1815 45.0929 57.2569 44.2316L69.5165 33.2496C70.807 31.9576 71.0221 29.8043 69.7316 28.5123C68.4411 27.2203 66.2903 27.005 64.9998 28.2969L57.0418 35.1876V4.61036C57.0418 2.67237 55.5362 1.16504 53.6005 1.16504C51.6647 1.16504 50.1592 2.67237 50.1592 4.61036V35.1876L42.2011 28.2969C40.9106 27.005 38.7598 27.2203 37.4693 28.5123C36.609 29.8043 36.8241 31.9576 38.1146 33.2496Z" fill="#333333" stroke="white" stroke-width="1.044"/>
    <path d="M8.00348 80.4069V50.691H30.372L40.2658 62.319C40.911 62.965 41.7713 63.3956 42.8468 63.3956H64.57C65.6455 63.3956 66.5058 62.965 67.151 62.319L77.0448 50.691H99.4133V80.6223H8.00348V80.4069ZM105.866 37.7711L92.5307 9.34717C91.8855 8.27051 90.81 7.40918 89.5195 7.40918H73.6035C71.6677 7.40918 70.1622 8.91651 70.1622 10.8545C70.1622 12.7925 71.6677 14.2998 73.6035 14.2998H87.3687L99.4133 40.1397V44.231H75.5392C74.4638 44.231 73.6035 44.6617 72.9582 45.3077L63.0645 56.9357H44.3523L34.4586 45.3077C33.8133 44.6617 32.953 44.231 31.8776 44.231H8.00348V40.1397L20.0481 14.2998H33.8133C35.7491 14.2998 37.2546 12.7925 37.2546 10.8545C37.2546 8.91651 35.7491 7.40918 33.8133 7.40918H17.8973C16.6068 7.40918 15.3163 8.05518 14.8861 9.34717L1.55102 37.7711C1.33593 38.2017 1.33594 38.6324 1.33594 39.2784V47.461V84.0676C1.33594 86.0056 2.84151 87.5129 4.77725 87.5129H102.855C104.79 87.5129 106.296 86.0056 106.296 84.0676V39.0631C106.081 38.6324 106.081 38.2017 105.866 37.7711Z" fill="#333333"/>
    <path d="M8.00348 80.4069V50.691H30.372L40.2658 62.319C40.911 62.965 41.7713 63.3956 42.8468 63.3956H64.57C65.6455 63.3956 66.5058 62.965 67.151 62.319L77.0448 50.691H99.4133V80.6223H8.00348V80.4069ZM105.866 37.7711L92.5307 9.34717C91.8855 8.27051 90.81 7.40918 89.5195 7.40918H73.6035C71.6677 7.40918 70.1622 8.91651 70.1622 10.8545C70.1622 12.7925 71.6677 14.2998 73.6035 14.2998H87.3687L99.4133 40.1397V44.231H75.5392C74.4638 44.231 73.6035 44.6617 72.9582 45.3077L63.0645 56.9357H44.3523L34.4586 45.3077C33.8133 44.6617 32.953 44.231 31.8776 44.231H8.00348V40.1397L20.0481 14.2998H33.8133C35.7491 14.2998 37.2546 12.7925 37.2546 10.8545C37.2546 8.91651 35.7491 7.40918 33.8133 7.40918H17.8973C16.6068 7.40918 15.3163 8.05518 14.8861 9.34717L1.55102 37.7711C1.33593 38.2017 1.33594 38.6324 1.33594 39.2784V47.461V84.0676C1.33594 86.0056 2.84151 87.5129 4.77725 87.5129H102.855C104.79 87.5129 106.296 86.0056 106.296 84.0676V39.0631C106.081 38.6324 106.081 38.2017 105.866 37.7711Z" fill="#333333" stroke="white" stroke-width="1.044"/>
</svg>
