<svg width="39" height="32" viewBox="0 0 39 32" fill="none" xmlns="http://www.w3.org/2000/svg">
<path d="M22.8841 0C20.3436 0 17.8232 0.631009 15.5828 1.8523C14.8427 2.2594 14.5826 3.17538 14.9627 3.92851C15.3628 4.68164 16.2629 4.94625 17.003 4.55951C18.8033 3.58247 20.8437 3.07361 22.8841 3.07361C29.7853 3.07361 35.3862 8.77298 35.3862 15.7954C35.3862 22.8179 29.7853 28.5172 22.8841 28.5172C20.6237 28.5172 18.4233 27.9066 16.5029 26.7463C15.8028 26.3189 14.8627 26.5428 14.4426 27.2756C14.0225 28.0084 14.2626 28.9447 14.9627 29.3721C17.3431 30.8173 20.0836 31.5705 22.8841 31.5705C31.4255 31.5705 38.3868 24.487 38.3868 15.7954C38.3868 7.10388 31.4456 0 22.8841 0Z" fill="white"/>
<path d="M22.8441 6.24897C22.0239 6.24897 21.3438 6.94104 21.3438 7.77559V15.775C21.3438 16.1211 21.4438 16.4468 21.6438 16.7114L25.5645 21.9222C25.8646 22.309 26.3046 22.5125 26.7647 22.5125C27.0848 22.5125 27.4048 22.4108 27.6849 22.2072C28.345 21.6983 28.465 20.7416 27.9649 20.0699L24.3443 15.2866V7.81627C24.3443 6.94101 23.6642 6.24897 22.8441 6.24897Z" fill="white"/>
<path d="M4.58087 10.4624H14.5626C15.3827 10.4624 16.0628 9.77032 16.0628 8.93577C16.0628 8.10122 15.3827 7.40915 14.5626 7.40915H4.58087C3.76073 7.40915 3.08061 8.10122 3.08061 8.93577C3.08061 9.77032 3.76073 10.4624 4.58087 10.4624Z" fill="white"/>
<path d="M15.7428 15.775C15.7428 14.9405 15.0627 14.2484 14.2425 14.2484H1.50026C0.680119 14.2484 0 14.9405 0 15.775C0 16.6096 0.680119 17.3017 1.50026 17.3017H14.2425C15.0627 17.3017 15.7428 16.6096 15.7428 15.775Z" fill="white"/>
<path d="M20.0435 22.6143C20.0435 21.7798 19.3634 21.0877 18.5433 21.0877H6.92125C6.10111 21.0877 5.42099 21.7798 5.42099 22.6143C5.42099 23.4489 6.10111 24.1409 6.92125 24.1409H18.5433C19.3634 24.1409 20.0435 23.4692 20.0435 22.6143Z" fill="white"/>
</svg>
