<?xml version="1.0" encoding="UTF-8"?>
<svg width="320px" height="200px" viewBox="0 0 320 200" version="1.1" xmlns="http://www.w3.org/2000/svg" xmlns:xlink="http://www.w3.org/1999/xlink">
    <!-- Generator: Sketch 48.2 (47327) - http://www.bohemiancoding.com/sketch -->
    <title>New calendar</title>
    <desc>Created with Sketch.</desc>
    <defs></defs>
    <g id="Page-1" stroke="none" stroke-width="1" fill="none" fill-rule="evenodd">
        <g id="New-calendar" transform="translate(78.000000, 21.000000)">
            <path d="M145.516757,84.9545833 C145.534705,88.4687739 143.424065,91.6468911 140.170924,93.0041238 C136.917783,94.3613566 133.164326,93.6297811 130.664162,91.1511881 C128.163998,88.6725951 127.41067,84.9362702 128.756132,81.687818 C130.101595,78.4393658 133.280246,76.3200455 136.807027,76.32 C139.111115,76.3141357 141.323172,77.2205553 142.956564,78.8398554 C144.589957,80.4591555 145.510886,82.6586903 145.516757,84.9545833 Z M110.810811,136.717917 C110.834454,141.496439 106.976996,145.394987 102.181563,145.439085 C97.3861293,145.483183 93.4571207,141.656238 93.392254,136.878095 C93.3273873,132.099952 97.1510701,128.168506 101.945946,128.083333 C104.278516,128.029819 106.534187,128.915852 108.202663,130.540987 C109.87114,132.166122 110.811429,134.393027 110.810811,136.717917 Z M110.810811,110.83625 C110.834454,115.614772 106.976996,119.51332 102.181563,119.557418 C97.3861293,119.601517 93.4571207,115.774571 93.392254,110.996428 C93.3273873,106.218286 97.1510701,102.286839 101.945946,102.201667 C104.278516,102.148153 106.534187,103.034185 108.202663,104.65932 C109.87114,106.284455 110.811429,108.511361 110.810811,110.83625 Z M110.810811,84.9545833 C110.834454,89.7331053 106.976996,93.6316537 102.181563,93.6757518 C97.3861293,93.7198499 93.4571207,89.8929047 93.392254,85.1147618 C93.3273873,80.3366189 97.1510701,76.4051727 101.945946,76.32 C104.278516,76.2664858 106.534187,77.1525187 108.202663,78.7776536 C109.87114,80.4027886 110.811429,82.6296942 110.810811,84.9545833 Z M41.0886486,136.717917 C41.1065966,140.232107 38.9959564,143.410224 35.7428155,144.767457 C32.4896746,146.12469 28.7362178,145.393114 26.2360537,142.914521 C23.7358897,140.435928 22.9825621,136.699604 24.3280244,133.451151 C25.6734866,130.202699 28.8521384,128.083379 32.3789189,128.083333 C34.6830074,128.077469 36.8950635,128.983889 38.5284563,130.603189 C40.1618491,132.222489 41.0827784,134.422024 41.0886486,136.717917 Z M41.0886486,110.83625 C41.1065966,114.350441 38.9959564,117.528558 35.7428155,118.88579 C32.4896746,120.243023 28.7362178,119.511448 26.2360537,117.032855 C23.7358897,114.554262 22.9825621,110.817937 24.3280244,107.569485 C25.6734866,104.321032 28.8521384,102.201712 32.3789189,102.201667 C34.6830074,102.195802 36.8950635,103.102222 38.5284563,104.721522 C40.1618491,106.340822 41.0827784,108.540357 41.0886486,110.83625 Z M41.0886486,84.9545833 C41.1065966,88.4687739 38.9959564,91.6468911 35.7428155,93.0041238 C32.4896746,94.3613566 28.7362178,93.6297811 26.2360537,91.1511881 C23.7358897,88.6725951 22.9825621,84.9362702 24.3280244,81.687818 C25.6734866,78.4393658 28.8521384,76.3200455 32.3789189,76.32 C34.6830074,76.3141357 36.8950635,77.2205553 38.5284563,78.8398554 C40.1618491,80.4591555 41.0827784,82.6586903 41.0886486,84.9545833 Z M75.9054054,136.717917 C75.9233534,140.232107 73.8127132,143.410224 70.5595723,144.767457 C67.3064313,146.12469 63.5529746,145.393114 61.0528105,142.914521 C58.5526464,140.435928 57.7993188,136.699604 59.1447811,133.451151 C60.4902434,130.202699 63.6688951,128.083379 67.1956757,128.083333 C69.4997641,128.077469 71.7118202,128.983889 73.345213,130.603189 C74.9786058,132.222489 75.8995351,134.422024 75.9054054,136.717917 Z M75.9054054,110.83625 C75.9233534,114.350441 73.8127132,117.528558 70.5595723,118.88579 C67.3064313,120.243023 63.5529746,119.511448 61.0528105,117.032855 C58.5526464,114.554262 57.7993188,110.817937 59.1447811,107.569485 C60.4902434,104.321032 63.6688951,102.201712 67.1956757,102.201667 C69.4997641,102.195802 71.7118202,103.102222 73.345213,104.721522 C74.9786058,106.340822 75.8995351,108.540357 75.9054054,110.83625 Z M75.9054054,84.9545833 C75.9233534,88.4687739 73.8127132,91.6468911 70.5595723,93.0041238 C67.3064313,94.3613566 63.5529746,93.6297811 61.0528105,91.1511881 C58.5526464,88.6725951 57.7993188,84.9362702 59.1447811,81.687818 C60.4902434,78.4393658 63.6688951,76.3200455 67.1956757,76.32 C69.4997641,76.3141357 71.7118202,77.2205553 73.345213,78.8398554 C74.9786058,80.4591555 75.8995351,82.6586903 75.9054054,84.9545833 Z" id="Shape" stroke="#FF6C00" stroke-width="2.53236038"></path>
            <path d="M145.915676,110.83625 C145.96062,114.418708 143.829494,117.673395 140.520733,119.075485 C137.211973,120.477575 133.381005,119.749331 130.822644,117.231936 C128.264284,114.714541 127.485311,110.906661 128.850677,107.592295 C130.216043,104.277929 133.455284,102.113613 137.050811,102.113333 C141.903791,102.112956 145.855013,106.00091 145.915676,110.83625" id="Shape" fill="#FF6C00" fill-rule="nonzero"></path>
            <path d="M145.915676,110.83625 C145.96062,114.418708 143.829494,117.673395 140.520733,119.075485 C137.211973,120.477575 133.381005,119.749331 130.822644,117.231936 C128.264284,114.714541 127.485311,110.906661 128.850677,107.592295 C130.216043,104.277929 133.455284,102.113613 137.050811,102.113333 C141.903791,102.112956 145.855013,106.00091 145.915676,110.83625 Z" id="Shape" stroke="#FF6C00" stroke-width="2.53236038"></path>
            <ellipse id="Oval" stroke="#FF6C00" stroke-width="2.53236038" cx="137.161622" cy="137.027083" rx="8.35513514" ry="8.32541667"></ellipse>
            <path d="M1.10810811,62.9375 L164,62.9375 M115.93027,0.86125 L115.93027,29.5695833 M49.2221622,0.86125 L49.2221622,29.5695833 M74.752973,14.50875 L115.93027,14.50875 M140.641081,14.50875 L153.938378,14.50875 C159.513136,14.5692648 164.000331,19.0897421 164,24.645 L164,147.759583 C163.987811,153.352641 159.44059,157.883688 153.827568,157.895833 L11.2805405,157.895833 C5.66246124,157.895833 1.10810811,153.35768 1.10810811,147.759583 L1.10810811,24.645 C1.1022071,21.9549011 2.17204738,19.3732884 4.08102919,17.4710967 C5.99001101,15.5689049 8.58083902,14.50287 11.2805405,14.50875 L49.2221622,14.50875" id="Shape" stroke="#FF6900" stroke-width="6.6061575" stroke-linecap="round" stroke-linejoin="round"></path>
        </g>
    </g>
</svg>