<svg width="118" height="94" viewBox="0 0 118 94" fill="none" xmlns="http://www.w3.org/2000/svg">
    <path d="M35.5896 53.3522H49.5699H99.8991C101.405 53.3522 102.695 52.4909 103.34 50.9835L116.891 17.1763C117.321 16.0996 117.106 14.8077 116.46 13.731C115.815 12.6543 114.525 12.0083 113.449 12.0083H44.1929C42.042 12.0083 40.5365 13.731 40.5365 15.669C40.5365 17.8223 42.2571 19.3296 44.1929 19.3296H107.857L97.3181 45.8155H49.5699H37.3102L22.0394 3.82569C21.6093 2.31836 20.1037 1.45703 18.5981 1.45703H4.18764C2.03682 1.45703 0.53125 3.17969 0.53125 5.11768C0.53125 7.27101 2.2519 8.77834 4.18764 8.77834H16.0171L29.7824 46.8922C25.0506 49.0455 21.8243 53.7828 21.8243 59.1662C21.8243 66.7028 27.8466 72.7321 35.3745 72.7321H103.771C105.921 72.7321 107.427 71.0095 107.427 69.0715C107.427 66.9181 105.706 65.4108 103.771 65.4108H35.3745C31.9332 65.4108 29.3522 62.6115 29.3522 59.3815C29.5673 55.9362 32.1483 53.3522 35.5896 53.3522Z" fill="#333333"/>
    <path d="M35.5896 53.3522H49.5699H99.8991C101.405 53.3522 102.695 52.4909 103.34 50.9835L116.891 17.1763C117.321 16.0996 117.106 14.8077 116.46 13.731C115.815 12.6543 114.525 12.0083 113.449 12.0083H44.1929C42.042 12.0083 40.5365 13.731 40.5365 15.669C40.5365 17.8223 42.2571 19.3296 44.1929 19.3296H107.857L97.3181 45.8155H49.5699H37.3102L22.0394 3.82569C21.6093 2.31836 20.1037 1.45703 18.5981 1.45703H4.18764C2.03682 1.45703 0.53125 3.17969 0.53125 5.11768C0.53125 7.27101 2.2519 8.77834 4.18764 8.77834H16.0171L29.7824 46.8922C25.0506 49.0455 21.8243 53.7828 21.8243 59.1662C21.8243 66.7028 27.8466 72.7321 35.3745 72.7321H103.771C105.921 72.7321 107.427 71.0095 107.427 69.0715C107.427 66.9181 105.706 65.4108 103.771 65.4108H35.3745C31.9332 65.4108 29.3522 62.6115 29.3522 59.3815C29.5673 55.9362 32.1483 53.3522 35.5896 53.3522Z" fill="#333333" stroke="white" stroke-width="1.044"/>
    <path d="M49.5694 80.4844C46.1281 80.4844 43.332 83.2837 43.332 86.729C43.332 90.1743 46.1281 92.9737 49.5694 92.9737C53.0107 92.9737 55.8068 90.1743 55.8068 86.729C55.8068 83.2837 53.0107 80.4844 49.5694 80.4844Z" fill="#333333"/>
    <path d="M49.5694 80.4844C46.1281 80.4844 43.332 83.2837 43.332 86.729C43.332 90.1743 46.1281 92.9737 49.5694 92.9737C53.0107 92.9737 55.8068 90.1743 55.8068 86.729C55.8068 83.2837 53.0107 80.4844 49.5694 80.4844Z" fill="#333333" stroke="white" stroke-width="0.892" stroke-miterlimit="10"/>
    <path d="M84.1983 80.4844C80.757 80.4844 77.9609 83.2837 77.9609 86.729C77.9609 90.1743 80.757 92.9737 84.1983 92.9737C87.6396 92.9737 90.4356 90.1743 90.4356 86.729C90.4356 83.2837 87.6396 80.4844 84.1983 80.4844Z" fill="#333333"/>
    <path d="M84.1983 80.4844C80.757 80.4844 77.9609 83.2837 77.9609 86.729C77.9609 90.1743 80.757 92.9737 84.1983 92.9737C87.6396 92.9737 90.4356 90.1743 90.4356 86.729C90.4356 83.2837 87.6396 80.4844 84.1983 80.4844Z" fill="#333333" stroke="white" stroke-width="0.892" stroke-miterlimit="10"/>
</svg>
